<?xml version="1.0" encoding="UTF-8"?><svg xmlns="http://www.w3.org/2000/svg" xmlns:xlink="http://www.w3.org/1999/xlink" width="1440" zoomAndPan="magnify" viewBox="0 0 1440 269.999989" height="269.999989" preserveAspectRatio="xMidYMid meet" version="1.0"><rect x="-144" width="1728" fill="rgb(100%, 100%, 100%)" y="-26.999999" height="323.999987" fill-opacity="1"/><rect x="-144" width="1728" fill="rgb(100%, 100%, 100%)" y="-26.999999" height="323.999987" fill-opacity="1"/><rect x="-144" width="1728" fill="rgb(70.199585%, 58.428955%, 85.488892%)" y="-26.999999" height="323.999987" fill-opacity="1"/><path fill="rgb(85.488892%, 99.609375%, 71.759033%)" d="M -37.6875 0 L 1517.800781 0 L 1517.800781 213.75 L -37.6875 213.75 Z M -37.6875 0 " fill-opacity="1" fill-rule="nonzero"/><path fill="rgb(85.488892%, 99.609375%, 71.759033%)" d="M 1360.125 112.953125 C 1006.59375 112.953125 720 146.195312 720 187.203125 C 720 228.210938 1006.59375 261.453125 1360.125 261.453125 C 1713.65625 261.453125 2000.25 228.210938 2000.25 187.203125 C 2000.25 146.195312 1713.65625 112.953125 1360.125 112.953125 Z M 1360.125 112.953125 " fill-opacity="1" fill-rule="nonzero"/><path fill="rgb(85.488892%, 99.609375%, 71.759033%)" d="M -72.578125 102.125 C -265.945312 107.308594 -421.808594 144.738281 -420.710938 185.730469 C -419.613281 226.722656 -261.96875 255.753906 -68.597656 250.574219 C 124.769531 245.394531 280.636719 207.960938 279.535156 166.96875 C 278.4375 125.976562 120.792969 96.945312 -72.578125 102.125 Z M -72.578125 102.125 " fill-opacity="1" fill-rule="nonzero"/><path fill="rgb(70.199585%, 58.428955%, 85.488892%)" d="M 511.808594 185.292969 C 318.433594 180.351562 160.824219 209.582031 159.777344 250.574219 C 158.730469 291.570312 314.640625 328.804688 508.015625 333.742188 C 701.390625 338.683594 859 309.453125 860.046875 268.460938 C 861.09375 227.46875 705.183594 190.230469 511.808594 185.292969 Z M 511.808594 185.292969 " fill-opacity="1" fill-rule="nonzero"/></svg>