<?xml version="1.0" encoding="UTF-8"?><svg xmlns="http://www.w3.org/2000/svg" xmlns:xlink="http://www.w3.org/1999/xlink" contentScriptType="text/ecmascript" width="1440" zoomAndPan="magnify" contentStyleType="text/css" viewBox="0 0 1440 809.999993" height="809.999993" preserveAspectRatio="xMidYMid meet" version="1.0"><defs><filter x="0%" y="0%" width="100%" xmlns:xlink="http://www.w3.org/1999/xlink" xlink:type="simple" xlink:actuate="onLoad" height="100%" id="filter-remove-color" xlink:show="other"><feColorMatrix values="0 0 0 0 1 0 0 0 0 1 0 0 0 0 1 0 0 0 1 0" color-interpolation-filters="sRGB"/></filter><mask id="mask-0"><g filter="url(#filter-remove-color)"><rect x="-144" width="1728" fill="rgb(0%, 0%, 0%)" y="-80.999999" height="971.999992" fill-opacity="0.9098"/></g></mask><clipPath id="clip-0"><path d="M 6 98 L 1027 98 L 1027 810 L 6 810 Z M 6 98 " clip-rule="nonzero"/></clipPath><clipPath id="clip-1"><path d="M 423.085938 -114.492188 L 1333.664062 796.085938 L 654.839844 1474.90625 L -255.734375 564.332031 Z M 423.085938 -114.492188 " clip-rule="nonzero"/></clipPath><clipPath id="clip-2"><path d="M -255.835938 564.429688 L 654.742188 1475.007812 L 1333.5625 796.183594 L 422.988281 -114.394531 Z M -255.835938 564.429688 " clip-rule="nonzero"/></clipPath><clipPath id="clip-3"><path d="M 699.238281 652.324219 C 723.804688 772.433594 991.324219 710.550781 1024.535156 891.171875 C 1057.742188 1071.792969 664.644531 1404.835938 216.058594 999.015625 C -175.65625 644.609375 63.207031 245.597656 270.21875 136.859375 C 431.277344 52.230469 649.660156 112.28125 752.933594 271.972656 C 878.046875 465.328125 686.046875 588.171875 699.238281 652.324219 Z M 699.238281 652.324219 " clip-rule="nonzero"/></clipPath><linearGradient x1="-12.540974" gradientTransform="matrix(4.549545, 4.549545, 4.549749, -4.549749, -202.498606, 582.278487)" xmlns:xlink="http://www.w3.org/1999/xlink" y1="-26.228972" x2="186.981345" gradientUnits="userSpaceOnUse" y2="173.293339" xlink:type="simple" xlink:actuate="onLoad" id="linear-pattern-0" xlink:show="other"><stop stop-opacity="1" stop-color="rgb(100%, 97.599792%, 94.898987%)" offset="0"/><stop stop-opacity="1" stop-color="rgb(100%, 97.599792%, 94.898987%)" offset="0.25"/><stop stop-opacity="1" stop-color="rgb(100%, 97.599792%, 94.898987%)" offset="0.3125"/><stop stop-opacity="1" stop-color="rgb(100%, 97.523499%, 94.720459%)" offset="0.34375"/><stop stop-opacity="1" stop-color="rgb(100%, 97.372437%, 94.361877%)" offset="0.359375"/><stop stop-opacity="1" stop-color="rgb(100%, 97.221375%, 94.004822%)" offset="0.375"/><stop stop-opacity="1" stop-color="rgb(100%, 97.070312%, 93.647766%)" offset="0.390625"/><stop stop-opacity="1" stop-color="rgb(100%, 96.920776%, 93.29071%)" offset="0.40625"/><stop stop-opacity="1" stop-color="rgb(100%, 96.769714%, 92.932129%)" offset="0.421875"/><stop stop-opacity="1" stop-color="rgb(100%, 96.618652%, 92.575073%)" offset="0.4375"/><stop stop-opacity="1" stop-color="rgb(100%, 96.46759%, 92.218018%)" offset="0.453125"/><stop stop-opacity="1" stop-color="rgb(100%, 96.318054%, 91.859436%)" offset="0.46875"/><stop stop-opacity="1" stop-color="rgb(100%, 96.166992%, 91.50238%)" offset="0.484375"/><stop stop-opacity="1" stop-color="rgb(100%, 96.01593%, 91.145325%)" offset="0.499989"/><stop stop-opacity="1" stop-color="rgb(100%, 95.941162%, 90.966797%)" offset="0.5"/><stop stop-opacity="1" stop-color="rgb(100%, 95.864868%, 90.788269%)" offset="0.500011"/><stop stop-opacity="1" stop-color="rgb(100%, 95.7901%, 90.609741%)" offset="0.515625"/><stop stop-opacity="1" stop-color="rgb(100%, 95.715332%, 90.429688%)" offset="0.53125"/><stop stop-opacity="1" stop-color="rgb(100%, 95.56427%, 90.072632%)" offset="0.546875"/><stop stop-opacity="1" stop-color="rgb(100%, 95.413208%, 89.715576%)" offset="0.5625"/><stop stop-opacity="1" stop-color="rgb(100%, 95.262146%, 89.358521%)" offset="0.578125"/><stop stop-opacity="1" stop-color="rgb(100%, 95.11261%, 88.999939%)" offset="0.59375"/><stop stop-opacity="1" stop-color="rgb(100%, 94.961548%, 88.642883%)" offset="0.609375"/><stop stop-opacity="1" stop-color="rgb(100%, 94.810486%, 88.285828%)" offset="0.625"/><stop stop-opacity="1" stop-color="rgb(100%, 94.659424%, 87.928772%)" offset="0.640625"/><stop stop-opacity="1" stop-color="rgb(100%, 94.509888%, 87.57019%)" offset="0.65625"/><stop stop-opacity="1" stop-color="rgb(100%, 94.358826%, 87.213135%)" offset="0.671875"/><stop stop-opacity="1" stop-color="rgb(100%, 94.207764%, 86.856079%)" offset="0.6875"/><stop stop-opacity="1" stop-color="rgb(100%, 94.056702%, 86.497498%)" offset="0.703125"/><stop stop-opacity="1" stop-color="rgb(100%, 93.907166%, 86.140442%)" offset="0.71875"/><stop stop-opacity="1" stop-color="rgb(100%, 93.756104%, 85.783386%)" offset="0.734375"/><stop stop-opacity="1" stop-color="rgb(100%, 93.605042%, 85.426331%)" offset="0.75"/><stop stop-opacity="1" stop-color="rgb(100%, 93.453979%, 85.067749%)" offset="0.765625"/><stop stop-opacity="1" stop-color="rgb(100%, 93.339539%, 84.793091%)" offset="0.78125"/><stop stop-opacity="1" stop-color="rgb(100%, 93.299866%, 84.698486%)" offset="0.8125"/><stop stop-opacity="1" stop-color="rgb(100%, 93.299866%, 84.698486%)" offset="0.875"/><stop stop-opacity="1" stop-color="rgb(100%, 93.299866%, 84.698486%)" offset="1"/></linearGradient><clipPath id="clip-4"><rect x="0" width="1263" y="0" height="810"/></clipPath>
<clipPath id="clip-5"><path d="M 566 760 L 738 760 L 738 810 L 566 810 Z M 566 760 " clip-rule="nonzero"/></clipPath><clipPath id="clip-6"><path d="M 622.65625 729 L 771.992188 815.34375 L 688.277344 960.136719 L 538.941406 873.792969 Z M 622.65625 729 " clip-rule="nonzero"/></clipPath><clipPath id="clip-7"><path d="M 622.65625 729 L 771.992188 815.34375 L 688.277344 960.136719 L 538.941406 873.792969 Z M 622.65625 729 " clip-rule="nonzero"/></clipPath><clipPath id="clip-8"><path d="M 102 597 L 248 597 L 248 748 L 102 748 Z M 102 597 " clip-rule="nonzero"/></clipPath><clipPath id="clip-9"><path d="M 138.609375 576.261719 L 290.601562 656.238281 L 223.199219 784.335938 L 71.207031 704.359375 Z M 138.609375 576.261719 " clip-rule="nonzero"/></clipPath><clipPath id="clip-10"><path d="M 138.609375 576.261719 L 290.601562 656.238281 L 223.199219 784.335938 L 71.207031 704.359375 Z M 138.609375 576.261719 " clip-rule="nonzero"/></clipPath><clipPath id="clip-11"><path d="M 117 354 L 260 354 L 260 520 L 117 520 Z M 117 354 " clip-rule="nonzero"/></clipPath><clipPath id="clip-12"><path d="M 184.867188 328.3125 L 312.953125 451.554688 L 208.949219 559.644531 L 80.863281 436.402344 Z M 184.867188 328.3125 " clip-rule="nonzero"/></clipPath><clipPath id="clip-13"><path d="M 184.867188 328.3125 L 312.953125 451.554688 L 208.949219 559.644531 L 80.863281 436.402344 Z M 184.867188 328.3125 " clip-rule="nonzero"/></clipPath><clipPath id="clip-14"><path d="M 312 190 L 453 190 L 453 323 L 312 323 Z M 312 190 " clip-rule="nonzero"/></clipPath><clipPath id="clip-15"><path d="M 328.128906 177.339844 L 481.546875 221.863281 L 443.921875 351.511719 L 290.5 306.992188 Z M 328.128906 177.339844 " clip-rule="nonzero"/></clipPath><clipPath id="clip-16"><path d="M 328.128906 177.339844 L 481.546875 221.863281 L 443.921875 351.511719 L 290.5 306.992188 Z M 328.128906 177.339844 " clip-rule="nonzero"/></clipPath><clipPath id="clip-17"><path d="M 551 271 L 682 271 L 682 406 L 551 406 Z M 551 271 " clip-rule="nonzero"/></clipPath><clipPath id="clip-18"><path d="M 582.871094 252.765625 L 719.84375 322.605469 L 660.90625 438.195312 L 523.933594 368.355469 Z M 582.871094 252.765625 " clip-rule="nonzero"/></clipPath><clipPath id="clip-19"><path d="M 582.871094 252.765625 L 719.84375 322.605469 L 660.90625 438.195312 L 523.933594 368.355469 Z M 582.871094 252.765625 " clip-rule="nonzero"/></clipPath><clipPath id="clip-20"><path d="M 522 481 L 671 481 L 671 658 L 522 658 Z M 522 481 " clip-rule="nonzero"/></clipPath><clipPath id="clip-21"><path d="M 618.050781 455.277344 L 719.824219 610.964844 L 587.992188 697.144531 L 486.21875 541.457031 Z M 618.050781 455.277344 " clip-rule="nonzero"/></clipPath><clipPath id="clip-22"><path d="M 618.050781 455.277344 L 719.824219 610.964844 L 587.992188 697.144531 L 486.21875 541.457031 Z M 618.050781 455.277344 " clip-rule="nonzero"/></clipPath></defs><rect x="-144" width="1728" fill="rgb(100%, 100%, 100%)" y="-80.999999" height="971.999992" fill-opacity="1"/><rect x="-144" width="1728" fill="rgb(100%, 100%, 100%)" y="-80.999999" height="971.999992" fill-opacity="1"/><rect x="-144" width="1728" fill="rgb(99.21875%, 94.898987%, 82.749939%)" y="-80.999999" height="971.999992" fill-opacity="1"/><path fill="rgb(76.469421%, 70.588684%, 94.509888%)" d="M 0.0703125 0 L 1439.929688 0 L 1439.929688 114.75 L 0.0703125 114.75 Z M 0.0703125 0 " fill-opacity="1" fill-rule="nonzero"/><path fill="rgb(99.21875%, 94.898987%, 82.749939%)" d="M 613.714844 3.777344 C 5.859375 3.777344 -486.910156 103.503906 -486.910156 226.527344 C -486.910156 349.546875 5.859375 449.277344 613.714844 449.277344 C 1221.574219 449.277344 1714.339844 349.546875 1714.339844 226.527344 C 1714.339844 103.503906 1221.574219 3.777344 613.714844 3.777344 Z M 613.714844 3.777344 " fill-opacity="1" fill-rule="nonzero"/><g mask="url(#mask-0)"><g transform="matrix(1, 0, 0, 1, 0, 0.000000000000039746)"><g id="source-5" clip-path="url(#clip-4)"><g clip-path="url(#clip-0)"><g clip-path="url(#clip-1)"><g clip-path="url(#clip-2)"><g clip-path="url(#clip-3)"><path fill="url(#linear-pattern-0)" d="M -378.886719 431.113281 L 528.871094 -476.640625 L 1436.628906 431.113281 L 528.871094 1338.871094 Z M -378.886719 431.113281 " fill-rule="nonzero"/></g></g></g></g></g></g></g><g clip-path="url(#clip-5)"><g clip-path="url(#clip-6)"><g clip-path="url(#clip-7)"><path fill="rgb(99.21875%, 94.898987%, 82.749939%)" d="M 731.363281 878.359375 C 730.964844 879.832031 730.535156 881.304688 730.179688 882.789062 C 729.835938 884.199219 729.566406 885.628906 729.269531 887.050781 C 729.074219 888.007812 728.933594 888.988281 727.902344 889.492188 C 727.714844 889.601562 727.589844 889.765625 727.535156 889.976562 C 726.875 892.402344 725.90625 894.699219 724.636719 896.867188 C 723.046875 899.886719 720.757812 902.382812 718.429688 904.902344 C 715.800781 907.746094 712.492188 909.632812 709.632812 912.125 C 707.664062 913.839844 705.210938 914.992188 702.980469 916.402344 C 701.984375 917.035156 701 917.679688 700.015625 918.328125 C 699.785156 918.480469 699.601562 918.710938 699.363281 918.84375 C 696.707031 920.320312 694.15625 922.074219 691.355469 923.183594 C 687.0625 924.886719 682.9375 927.179688 678.21875 927.65625 C 677.941406 927.707031 677.679688 927.796875 677.433594 927.929688 C 674.664062 929.191406 671.765625 929.683594 668.734375 929.414062 C 668.203125 929.375 667.652344 929.691406 667.101562 929.71875 C 666.007812 929.773438 664.90625 929.738281 663.8125 929.742188 C 662.015625 929.746094 660.222656 929.769531 658.429688 929.75 C 657.464844 929.785156 656.503906 929.726562 655.550781 929.582031 C 653.253906 929.109375 651.003906 928.425781 648.703125 928.007812 C 647.351562 927.765625 645.921875 927.988281 644.558594 927.78125 C 643.644531 927.640625 642.804688 927.0625 641.90625 926.773438 C 641.089844 926.417969 640.238281 926.226562 639.351562 926.199219 C 637.449219 926.378906 635.613281 926.105469 633.84375 925.375 C 631.738281 924.507812 629.558594 923.828125 627.410156 923.089844 C 624.9375 922.238281 622.644531 920.839844 620.304688 919.617188 C 619.132812 918.867188 617.867188 918.328125 616.515625 917.996094 C 615.808594 917.917969 615.15625 917.6875 614.554688 917.304688 C 613.957031 916.921875 613.472656 916.429688 613.097656 915.820312 C 612.53125 914.8125 611.460938 914.605469 610.449219 914.332031 C 609.832031 914.25 609.246094 914.0625 608.695312 913.769531 C 606.167969 911.839844 603.125 910.789062 600.722656 908.5625 C 597.21875 905.320312 593.300781 902.53125 589.644531 899.449219 C 588.675781 898.476562 587.808594 897.421875 587.039062 896.285156 C 586.867188 896.070312 586.796875 895.707031 586.585938 895.597656 C 585.140625 894.855469 584.539062 893.398438 583.597656 892.222656 C 580.742188 888.660156 577.792969 885.171875 574.976562 881.578125 C 574.277344 880.6875 573.957031 879.5 573.4375 878.464844 C 573.289062 878.167969 573.019531 877.929688 572.859375 877.640625 C 572.019531 876.296875 571.273438 874.902344 570.621094 873.457031 C 569.667969 871.007812 568.867188 868.492188 568.132812 865.964844 C 567.71875 864.445312 567.414062 862.898438 567.222656 861.335938 C 566.953125 859.433594 567.160156 857.511719 566.601562 855.589844 C 566.214844 854.261719 566.5625 852.710938 566.621094 851.261719 C 566.769531 847.722656 566.980469 844.183594 567.070312 840.644531 C 567.097656 839.660156 567.53125 839.445312 568.664062 839.515625 C 568.433594 839.378906 568.230469 839.207031 568.0625 838.996094 C 567.890625 838.789062 567.761719 838.558594 567.675781 838.300781 C 567.589844 838.046875 567.546875 837.785156 567.554688 837.515625 C 567.5625 837.246094 567.613281 836.984375 567.714844 836.734375 C 568.167969 834.851562 568.527344 832.949219 568.785156 831.027344 C 568.816406 830.820312 568.867188 830.617188 568.933594 830.417969 C 570.097656 827.308594 571.144531 824.148438 572.488281 821.117188 C 573.027344 819.996094 573.441406 818.832031 573.734375 817.621094 C 574.105469 816.128906 574.675781 814.714844 575.441406 813.382812 C 575.996094 812.597656 576.640625 811.898438 577.375 811.277344 C 576.660156 809.917969 576.671875 809.898438 579.277344 808.359375 C 578.457031 807.628906 578.734375 806.820312 579.148438 806 C 579.695312 804.914062 580.269531 803.84375 580.746094 802.726562 C 581.054688 801.96875 581.539062 801.351562 582.199219 800.871094 C 582.863281 800.390625 583.601562 800.121094 584.414062 800.0625 C 583.320312 797.242188 585.628906 795.777344 586.894531 794.035156 C 588.183594 792.269531 590.058594 790.941406 591.628906 789.375 C 592.308594 788.695312 592.871094 787.902344 593.488281 787.160156 C 597.203125 782.875 601.425781 779.171875 606.15625 776.050781 C 608.96875 774.136719 611.949219 772.550781 615.101562 771.289062 C 616.007812 770.917969 616.855469 770.449219 617.652344 769.875 C 620.273438 768.058594 623.167969 766.992188 626.339844 766.675781 C 626.542969 766.648438 626.890625 766.679688 626.921875 766.59375 C 627.511719 765.003906 629.082031 765.191406 630.261719 764.808594 C 635.191406 763.082031 640.238281 761.859375 645.410156 761.144531 C 651.996094 760.339844 658.589844 760.230469 665.199219 760.816406 C 666.597656 760.949219 668.148438 760.808594 669.292969 762 C 669.429688 762.144531 669.800781 762.097656 670.0625 762.089844 C 672.589844 761.96875 675.03125 762.367188 677.386719 763.28125 C 679.363281 764.089844 681.519531 764.460938 683.496094 765.273438 C 686.128906 766.355469 688.683594 767.636719 691.234375 768.90625 C 692.976562 769.773438 694.703125 770.691406 696.351562 771.722656 C 698.472656 773.054688 700.550781 774.464844 702.550781 775.976562 C 703.042969 776.347656 703.152344 777.238281 703.519531 778.078125 C 704.359375 778.253906 705.167969 778.519531 705.953125 778.875 C 706.78125 779.394531 707.53125 780.007812 708.210938 780.710938 C 709.691406 782.082031 711.132812 783.492188 712.585938 784.882812 C 713.210938 785.5 713.484375 786.246094 713.410156 787.121094 C 713.40625 789.453125 713.808594 789.714844 716.21875 789.332031 C 717.144531 790.464844 718.125 791.613281 719.035156 792.808594 C 719.269531 793.128906 719.347656 793.484375 719.261719 793.875 C 718.867188 794.910156 719.460938 795.417969 720.253906 795.4375 C 722.125 795.484375 723.144531 796.683594 724.082031 797.996094 C 725.214844 799.578125 726.335938 801.179688 727.308594 802.859375 C 728.105469 804.234375 728.519531 805.738281 729.773438 806.949219 C 730.746094 807.890625 731.007812 809.558594 731.589844 810.898438 C 731.984375 811.921875 732.4375 812.921875 732.945312 813.890625 C 733.335938 814.367188 733.792969 814.773438 734.308594 815.105469 C 734.097656 815.894531 733.84375 816.679688 733.6875 817.480469 C 733.625 817.792969 733.648438 818.328125 733.839844 818.460938 C 735.515625 819.617188 735.609375 821.496094 736.191406 823.25 L 735.105469 824.304688 C 735.519531 825.015625 736.160156 825.613281 736.1875 826.238281 C 736.3125 829.117188 736.253906 829.117188 735.308594 830.097656 C 736.273438 832.980469 738.472656 835.824219 735.714844 839.050781 L 736.972656 839.886719 C 736.789062 841.394531 736.558594 842.964844 736.417969 844.546875 C 736.214844 846.757812 736.160156 848.984375 735.894531 851.191406 C 735.675781 852.957031 735.222656 854.695312 734.882812 856.449219 C 734.820312 856.769531 734.777344 857.085938 734.753906 857.410156 C 734.71875 857.875 734.882812 858.476562 734.652344 858.800781 C 733.460938 860.484375 733.679688 862.476562 733.246094 864.324219 C 733.097656 864.972656 732.417969 865.546875 732.410156 866.164062 C 732.402344 866.84375 733.023438 867.507812 733.125 868.210938 C 733.144531 868.894531 733.0625 869.566406 732.875 870.226562 C 732.386719 872.957031 731.886719 875.683594 731.382812 878.410156 C 731.074219 877.804688 730.765625 877.207031 730.308594 876.316406 C 730.089844 876.863281 729.789062 877.394531 729.863281 877.460938 C 730.339844 877.800781 730.839844 878.097656 731.363281 878.359375 Z M 731.363281 878.359375 " fill-opacity="1" fill-rule="nonzero"/></g></g></g><g clip-path="url(#clip-8)"><g clip-path="url(#clip-9)"><g clip-path="url(#clip-10)"><path fill="rgb(100%, 84.709167%, 83.529663%)" d="M 147.375 736.519531 C 113.25 726.640625 94.460938 689.8125 105.714844 656.175781 C 118.921875 616.824219 142.863281 578.519531 197.636719 607.34375 C 226.902344 622.742188 240.03125 658.261719 246.964844 695.101562 C 252.644531 725.246094 226.742188 751.945312 196.484375 746.925781 C 180 744.195312 163.011719 741.035156 147.375 736.519531 " fill-opacity="1" fill-rule="nonzero"/></g></g></g><g clip-path="url(#clip-11)"><g clip-path="url(#clip-12)"><g clip-path="url(#clip-13)"><path fill="rgb(84.709167%, 96.469116%, 99.21875%)" d="M 147.335938 490.28125 C 116.25 470.652344 108.191406 428.609375 129.089844 398.378906 C 153.578125 363.019531 188.441406 331.785156 234.601562 376.199219 C 259.265625 399.925781 262.070312 439.039062 258.335938 477.683594 C 255.285156 509.308594 221.820312 528.4375 193.175781 514.746094 C 177.570312 507.292969 161.585938 499.269531 147.335938 490.28125 " fill-opacity="1" fill-rule="nonzero"/></g></g></g><g clip-path="url(#clip-14)"><g clip-path="url(#clip-15)"><g clip-path="url(#clip-16)"><path fill="rgb(100%, 88.62915%, 80.778503%)" d="M 365.914062 322.066406 C 332.972656 319.453125 309 289.339844 313.007812 256.507812 C 317.726562 218.085938 332.429688 178.609375 387.714844 194.652344 C 417.253906 203.222656 435.824219 233.203125 448.988281 265.546875 C 459.773438 292.015625 441.125 321.265625 412.609375 322.355469 C 397.078125 322.957031 381.007812 323.257812 365.914062 322.066406 " fill-opacity="1" fill-rule="nonzero"/></g></g></g><g clip-path="url(#clip-17)"><g clip-path="url(#clip-18)"><g clip-path="url(#clip-19)"><path fill="rgb(83.139038%, 95.689392%, 87.059021%)" d="M 592.488281 396.257812 C 561.828125 387.820312 544.597656 355.042969 554.304688 324.769531 C 565.691406 289.351562 586.707031 254.742188 636.066406 279.910156 C 662.441406 293.355469 674.589844 325.027344 681.199219 357.953125 C 686.621094 384.894531 663.722656 409.132812 636.574219 404.996094 C 621.785156 402.746094 606.539062 400.117188 592.488281 396.257812 " fill-opacity="1" fill-rule="nonzero"/></g></g></g><g clip-path="url(#clip-20)"><g clip-path="url(#clip-21)"><g clip-path="url(#clip-22)"><path fill="rgb(88.238525%, 86.268616%, 93.728638%)" d="M 541.421875 611.960938 C 514.289062 584.675781 515.988281 539.863281 544.492188 513.851562 C 577.875 483.441406 620.886719 459.660156 657.5625 515.761719 C 677.160156 545.738281 670.785156 586.339844 657.832031 624.9375 C 647.242188 656.523438 608.519531 668.265625 582.484375 647.617188 C 568.296875 636.371094 553.859375 624.457031 541.421875 611.960938 " fill-opacity="1" fill-rule="nonzero"/></g></g></g></svg>