<svg xmlns="http://www.w3.org/2000/svg" xmlns:xlink="http://www.w3.org/1999/xlink" width="1440" viewBox="0 0 1440 1200" height="1200" version="1.0"><defs><clipPath id="d"><path d="M 6 42 L 1027 42 L 1027 1136 L 6 1136 Z M 6 42"/></clipPath><clipPath id="e"><path d="M 423.085938 -170.742188 L 1333.664062 739.835938 L 654.839844 1418.65625 L -255.734375 508.082031 Z M 423.085938 -170.742188"/></clipPath><clipPath id="f"><path d="M -255.835938 508.179688 L 654.742188 1418.757812 L 1333.5625 739.933594 L 422.988281 -170.644531 Z M -255.835938 508.179688"/></clipPath><clipPath id="g"><path d="M 699.238281 596.074219 C 723.804688 716.183594 991.324219 654.300781 1024.535156 834.921875 C 1057.742188 1015.542969 664.644531 1348.585938 216.058594 942.765625 C -175.65625 588.359375 63.207031 189.347656 270.21875 80.605469 C 431.277344 -4.019531 649.660156 56.03125 752.933594 215.722656 C 878.046875 409.078125 686.046875 531.921875 699.238281 596.074219 Z M 699.238281 596.074219"/></clipPath><clipPath id="c"><path d="M0 0H1263V1200H0z"/></clipPath><clipPath id="i"><path d="M 566 704 L 738 704 L 738 874 L 566 874 Z M 566 704"/></clipPath><clipPath id="j"><path d="M 622.65625 672.75 L 771.992188 759.09375 L 688.277344 903.886719 L 538.941406 817.542969 Z M 622.65625 672.75"/></clipPath><clipPath id="k"><path d="M 622.65625 672.75 L 771.992188 759.09375 L 688.277344 903.886719 L 538.941406 817.542969 Z M 622.65625 672.75"/></clipPath><clipPath id="l"><path d="M 102 541 L 248 541 L 248 692 L 102 692 Z M 102 541"/></clipPath><clipPath id="m"><path d="M 138.609375 520.011719 L 290.601562 599.988281 L 223.199219 728.085938 L 71.207031 648.109375 Z M 138.609375 520.011719"/></clipPath><clipPath id="n"><path d="M 138.609375 520.011719 L 290.601562 599.988281 L 223.199219 728.085938 L 71.207031 648.109375 Z M 138.609375 520.011719"/></clipPath><clipPath id="o"><path d="M 117 298 L 260 298 L 260 463 L 117 463 Z M 117 298"/></clipPath><clipPath id="p"><path d="M 184.867188 272.0625 L 312.953125 395.304688 L 208.949219 503.394531 L 80.863281 380.152344 Z M 184.867188 272.0625"/></clipPath><clipPath id="q"><path d="M 184.867188 272.0625 L 312.953125 395.304688 L 208.949219 503.394531 L 80.863281 380.152344 Z M 184.867188 272.0625"/></clipPath><clipPath id="r"><path d="M 312 134 L 453 134 L 453 267 L 312 267 Z M 312 134"/></clipPath><clipPath id="s"><path d="M 328.128906 121.089844 L 481.546875 165.613281 L 443.921875 295.261719 L 290.5 250.738281 Z M 328.128906 121.089844"/></clipPath><clipPath id="t"><path d="M 328.128906 121.089844 L 481.546875 165.613281 L 443.921875 295.261719 L 290.5 250.738281 Z M 328.128906 121.089844"/></clipPath><clipPath id="u"><path d="M 551 215 L 682 215 L 682 350 L 551 350 Z M 551 215"/></clipPath><clipPath id="v"><path d="M 582.871094 196.515625 L 719.84375 266.355469 L 660.90625 381.945312 L 523.933594 312.105469 Z M 582.871094 196.515625"/></clipPath><clipPath id="w"><path d="M 582.871094 196.515625 L 719.84375 266.355469 L 660.90625 381.945312 L 523.933594 312.105469 Z M 582.871094 196.515625"/></clipPath><clipPath id="x"><path d="M 522 425 L 671 425 L 671 602 L 522 602 Z M 522 425"/></clipPath><clipPath id="y"><path d="M 618.050781 399.027344 L 719.824219 554.714844 L 587.992188 640.894531 L 486.21875 485.207031 Z M 618.050781 399.027344"/></clipPath><clipPath id="z"><path d="M 618.050781 399.027344 L 719.824219 554.714844 L 587.992188 640.894531 L 486.21875 485.207031 Z M 618.050781 399.027344"/></clipPath><linearGradient x1="-36.841" gradientTransform="rotate(45 -736.222 18.577) scale(6.43403 -6.43431)" xmlns:xlink="http://www.w3.org/1999/xlink" y1="-50.529" x2="211.282" gradientUnits="userSpaceOnUse" y2="197.594" xlink:type="simple" xlink:actuate="onLoad" id="h" xlink:show="other"><stop stop-color="#FFF9F2" offset="0"/><stop stop-color="#FFF9F2" offset=".25"/><stop stop-color="#FFF9F2" offset=".375"/><stop stop-color="#FFF8F1" offset=".383"/><stop stop-color="#FFF8F0" offset=".391"/><stop stop-color="#FFF8F0" offset=".398"/><stop stop-color="#FFF8EF" offset=".406"/><stop stop-color="#FFF7EE" offset=".414"/><stop stop-color="#FFF7EE" offset=".422"/><stop stop-color="#FFF7ED" offset=".43"/><stop stop-color="#FFF7ED" offset=".438"/><stop stop-color="#FFF6EC" offset=".445"/><stop stop-color="#FFF6EC" offset=".453"/><stop stop-color="#FFF6EB" offset=".461"/><stop stop-color="#FFF6EB" offset=".469"/><stop stop-color="#FFF5EA" offset=".477"/><stop stop-color="#FFF5E9" offset=".484"/><stop stop-color="#FFF5E9" offset=".492"/><stop stop-color="#FFF5E8" offset=".5"/><stop stop-color="#FFF5E8" offset=".5"/><stop stop-color="#FFF5E8" offset=".5"/><stop stop-color="#FFF4E7" offset=".508"/><stop stop-color="#FFF4E7" offset=".516"/><stop stop-color="#FFF4E7" offset=".523"/><stop stop-color="#FFF4E6" offset=".531"/><stop stop-color="#FFF4E5" offset=".539"/><stop stop-color="#FFF3E5" offset=".547"/><stop stop-color="#FFF3E4" offset=".555"/><stop stop-color="#FFF3E4" offset=".563"/><stop stop-color="#FFF3E3" offset=".57"/><stop stop-color="#FFF2E3" offset=".578"/><stop stop-color="#FFF2E2" offset=".586"/><stop stop-color="#FFF2E1" offset=".594"/><stop stop-color="#FFF2E1" offset=".602"/><stop stop-color="#FFF1E0" offset=".609"/><stop stop-color="#FFF1E0" offset=".617"/><stop stop-color="#FFF1DF" offset=".625"/><stop stop-color="#FFF1DF" offset=".633"/><stop stop-color="#FFF0DE" offset=".641"/><stop stop-color="#FFF0DD" offset=".648"/><stop stop-color="#FFF0DD" offset=".656"/><stop stop-color="#FFF0DC" offset=".664"/><stop stop-color="#FFF0DC" offset=".672"/><stop stop-color="#FFEFDB" offset=".68"/><stop stop-color="#FFEFDB" offset=".688"/><stop stop-color="#FFEFDA" offset=".695"/><stop stop-color="#FFEFDA" offset=".703"/><stop stop-color="#FFEED9" offset=".711"/><stop stop-color="#FFEED8" offset=".719"/><stop stop-color="#FFEED8" offset=".75"/><stop stop-color="#FFEED8" offset="1"/></linearGradient><filter x="0%" y="0%" width="100%" xmlns:xlink="http://www.w3.org/1999/xlink" xlink:type="simple" xlink:actuate="onLoad" height="100%" id="a" xlink:show="other"><feColorMatrix values="0 0 0 0 1 0 0 0 0 1 0 0 0 0 1 0 0 0 1 0" color-interpolation-filters="sRGB"/></filter><mask id="b"><g filter="url(#a)"><path fill-opacity=".91" d="M-144 -120H1584V1320H-144z"/></g></mask></defs><path fill="#FFF" d="M-144 -120H1584V1320H-144z"/><path fill="#FFF" d="M-144 -120H1584V1320H-144z"/><path fill="#FFE9A8" d="M-144 -120H1584V1320H-144z"/><g mask="url(#b)"><g><g clip-path="url(#c)"><g clip-path="url(#d)"><g clip-path="url(#e)"><g clip-path="url(#f)"><g clip-path="url(#g)"><path fill="url(#h)" d="M -600 600 L 528.871094 -528.871094 L 1657.742188 600 L 528.871094 1728.871094 Z M -600 600"/></g></g></g></g></g></g></g><g clip-path="url(#i)"><g clip-path="url(#j)"><g clip-path="url(#k)"><path fill="#FFE9A8" d="M 731.363281 822.109375 C 730.964844 823.582031 730.535156 825.054688 730.179688 826.539062 C 729.835938 827.949219 729.566406 829.378906 729.269531 830.800781 C 729.074219 831.757812 728.933594 832.738281 727.902344 833.242188 C 727.714844 833.351562 727.589844 833.515625 727.535156 833.726562 C 726.875 836.152344 725.90625 838.449219 724.636719 840.617188 C 723.046875 843.636719 720.757812 846.132812 718.429688 848.652344 C 715.800781 851.496094 712.492188 853.382812 709.632812 855.875 C 707.664062 857.589844 705.210938 858.742188 702.980469 860.152344 C 701.984375 860.785156 701 861.429688 700.015625 862.078125 C 699.785156 862.230469 699.601562 862.460938 699.363281 862.59375 C 696.707031 864.070312 694.15625 865.824219 691.355469 866.933594 C 687.0625 868.636719 682.9375 870.929688 678.21875 871.40625 C 677.941406 871.457031 677.679688 871.546875 677.433594 871.679688 C 674.664062 872.941406 671.765625 873.433594 668.734375 873.164062 C 668.203125 873.125 667.652344 873.441406 667.101562 873.46875 C 666.007812 873.523438 664.90625 873.488281 663.8125 873.492188 C 662.015625 873.496094 660.222656 873.519531 658.429688 873.496094 C 657.464844 873.535156 656.503906 873.476562 655.550781 873.332031 C 653.253906 872.859375 651.003906 872.175781 648.703125 871.757812 C 647.351562 871.515625 645.921875 871.738281 644.558594 871.53125 C 643.644531 871.390625 642.804688 870.8125 641.90625 870.523438 C 641.089844 870.167969 640.238281 869.976562 639.351562 869.949219 C 637.449219 870.128906 635.613281 869.855469 633.84375 869.125 C 631.738281 868.257812 629.558594 867.578125 627.410156 866.839844 C 624.9375 865.988281 622.644531 864.589844 620.304688 863.367188 C 619.132812 862.617188 617.867188 862.078125 616.515625 861.746094 C 615.808594 861.667969 615.15625 861.4375 614.554688 861.054688 C 613.957031 860.671875 613.472656 860.179688 613.097656 859.570312 C 612.53125 858.5625 611.460938 858.355469 610.449219 858.082031 C 609.832031 858 609.246094 857.8125 608.695312 857.519531 C 606.167969 855.589844 603.125 854.539062 600.722656 852.3125 C 597.21875 849.070312 593.300781 846.28125 589.644531 843.199219 C 588.675781 842.226562 587.808594 841.171875 587.039062 840.035156 C 586.867188 839.820312 586.796875 839.457031 586.585938 839.347656 C 585.140625 838.605469 584.539062 837.148438 583.597656 835.972656 C 580.742188 832.410156 577.792969 828.921875 574.976562 825.328125 C 574.277344 824.4375 573.957031 823.25 573.4375 822.214844 C 573.289062 821.917969 573.019531 821.679688 572.859375 821.390625 C 572.019531 820.046875 571.273438 818.652344 570.621094 817.207031 C 569.667969 814.757812 568.867188 812.242188 568.132812 809.714844 C 567.71875 808.191406 567.414062 806.648438 567.222656 805.085938 C 566.953125 803.183594 567.160156 801.261719 566.601562 799.339844 C 566.214844 798.011719 566.5625 796.460938 566.621094 795.011719 C 566.769531 791.472656 566.980469 787.933594 567.070312 784.394531 C 567.097656 783.410156 567.53125 783.195312 568.664062 783.265625 C 568.433594 783.128906 568.230469 782.957031 568.0625 782.746094 C 567.890625 782.539062 567.761719 782.308594 567.675781 782.050781 C 567.589844 781.796875 567.546875 781.535156 567.554688 781.265625 C 567.5625 780.996094 567.613281 780.734375 567.714844 780.484375 C 568.167969 778.601562 568.527344 776.699219 568.785156 774.777344 C 568.816406 774.570312 568.867188 774.367188 568.933594 774.167969 C 570.097656 771.058594 571.144531 767.898438 572.488281 764.867188 C 573.027344 763.746094 573.441406 762.582031 573.734375 761.371094 C 574.105469 759.878906 574.675781 758.464844 575.441406 757.132812 C 575.996094 756.347656 576.640625 755.648438 577.375 755.027344 C 576.660156 753.667969 576.671875 753.648438 579.277344 752.109375 C 578.457031 751.378906 578.734375 750.570312 579.148438 749.75 C 579.695312 748.664062 580.269531 747.589844 580.746094 746.476562 C 581.054688 745.71875 581.539062 745.101562 582.199219 744.621094 C 582.863281 744.140625 583.601562 743.871094 584.414062 743.8125 C 583.320312 740.992188 585.628906 739.527344 586.894531 737.785156 C 588.183594 736.019531 590.058594 734.691406 591.628906 733.125 C 592.308594 732.445312 592.871094 731.652344 593.488281 730.910156 C 597.203125 726.625 601.425781 722.921875 606.15625 719.800781 C 608.96875 717.886719 611.949219 716.300781 615.101562 715.039062 C 616.007812 714.667969 616.855469 714.199219 617.652344 713.625 C 620.273438 711.808594 623.167969 710.742188 626.339844 710.425781 C 626.542969 710.398438 626.890625 710.429688 626.921875 710.34375 C 627.511719 708.753906 629.082031 708.941406 630.261719 708.558594 C 635.191406 706.832031 640.238281 705.609375 645.410156 704.894531 C 651.996094 704.089844 658.589844 703.980469 665.199219 704.566406 C 666.597656 704.699219 668.148438 704.558594 669.292969 705.75 C 669.429688 705.894531 669.800781 705.847656 670.0625 705.839844 C 672.589844 705.71875 675.03125 706.117188 677.386719 707.03125 C 679.363281 707.839844 681.519531 708.210938 683.496094 709.023438 C 686.128906 710.101562 688.683594 711.386719 691.234375 712.65625 C 692.976562 713.523438 694.703125 714.441406 696.351562 715.472656 C 698.472656 716.804688 700.550781 718.214844 702.550781 719.726562 C 703.042969 720.097656 703.152344 720.988281 703.519531 721.828125 C 704.359375 722.003906 705.167969 722.269531 705.953125 722.621094 C 706.78125 723.144531 707.53125 723.757812 708.210938 724.460938 C 709.691406 725.832031 711.132812 727.242188 712.585938 728.632812 C 713.210938 729.25 713.484375 729.996094 713.410156 730.871094 C 713.40625 733.203125 713.808594 733.464844 716.21875 733.082031 C 717.144531 734.214844 718.125 735.363281 719.035156 736.558594 C 719.269531 736.878906 719.347656 737.234375 719.261719 737.625 C 718.867188 738.660156 719.460938 739.167969 720.253906 739.1875 C 722.125 739.234375 723.144531 740.433594 724.082031 741.746094 C 725.214844 743.328125 726.335938 744.929688 727.308594 746.609375 C 728.105469 747.984375 728.519531 749.488281 729.773438 750.699219 C 730.746094 751.640625 731.007812 753.308594 731.589844 754.648438 C 731.984375 755.671875 732.4375 756.671875 732.945312 757.640625 C 733.335938 758.117188 733.792969 758.523438 734.308594 758.855469 C 734.097656 759.644531 733.84375 760.429688 733.6875 761.230469 C 733.625 761.542969 733.648438 762.078125 733.839844 762.210938 C 735.515625 763.367188 735.609375 765.246094 736.191406 767 L 735.105469 768.054688 C 735.519531 768.765625 736.160156 769.363281 736.1875 769.988281 C 736.3125 772.867188 736.253906 772.867188 735.308594 773.847656 C 736.273438 776.730469 738.472656 779.574219 735.714844 782.800781 L 736.972656 783.636719 C 736.789062 785.144531 736.558594 786.714844 736.417969 788.296875 C 736.214844 790.507812 736.160156 792.734375 735.894531 794.941406 C 735.675781 796.707031 735.222656 798.445312 734.882812 800.199219 C 734.820312 800.519531 734.777344 800.835938 734.753906 801.160156 C 734.71875 801.625 734.882812 802.226562 734.652344 802.550781 C 733.460938 804.234375 733.679688 806.226562 733.246094 808.074219 C 733.097656 808.722656 732.417969 809.296875 732.410156 809.914062 C 732.402344 810.59375 733.023438 811.257812 733.125 811.960938 C 733.144531 812.644531 733.0625 813.316406 732.875 813.976562 C 732.386719 816.707031 731.886719 819.433594 731.382812 822.160156 C 731.074219 821.554688 730.765625 820.957031 730.308594 820.066406 C 730.089844 820.613281 729.789062 821.144531 729.863281 821.210938 C 730.339844 821.550781 730.839844 821.847656 731.363281 822.109375 Z M 731.363281 822.109375"/></g></g></g><g clip-path="url(#l)"><g clip-path="url(#m)"><g clip-path="url(#n)"><path fill="#FFD8D5" d="M 147.375 680.265625 C 113.25 670.390625 94.460938 633.5625 105.714844 599.925781 C 118.921875 560.574219 142.863281 522.269531 197.636719 551.09375 C 226.902344 566.492188 240.03125 602.011719 246.964844 638.851562 C 252.644531 668.996094 226.742188 695.695312 196.484375 690.675781 C 180 687.945312 163.011719 684.785156 147.375 680.265625"/></g></g></g><g clip-path="url(#o)"><g clip-path="url(#p)"><g clip-path="url(#q)"><path fill="#D8F6FD" d="M 147.335938 434.03125 C 116.25 414.402344 108.191406 372.359375 129.089844 342.128906 C 153.578125 306.769531 188.445312 275.535156 234.601562 319.949219 C 259.265625 343.675781 262.070312 382.789062 258.335938 421.433594 C 255.285156 453.058594 221.820312 472.1875 193.175781 458.496094 C 177.570312 451.042969 161.585938 443.019531 147.335938 434.03125"/></g></g></g><g clip-path="url(#r)"><g clip-path="url(#s)"><g clip-path="url(#t)"><path fill="#FFE2CE" d="M 365.914062 265.816406 C 332.972656 263.203125 309 233.089844 313.007812 200.257812 C 317.726562 161.835938 332.429688 122.359375 387.714844 138.402344 C 417.253906 146.972656 435.824219 176.953125 448.988281 209.296875 C 459.773438 235.765625 441.125 265.015625 412.609375 266.105469 C 397.078125 266.707031 381.007812 267.007812 365.914062 265.816406"/></g></g></g><g clip-path="url(#u)"><g clip-path="url(#v)"><g clip-path="url(#w)"><path fill="#D4F4DE" d="M 592.488281 340.007812 C 561.828125 331.570312 544.597656 298.792969 554.304688 268.519531 C 565.691406 233.101562 586.707031 198.492188 636.066406 223.660156 C 662.441406 237.105469 674.589844 268.777344 681.199219 301.703125 C 686.621094 328.644531 663.722656 352.882812 636.574219 348.746094 C 621.785156 346.496094 606.539062 343.867188 592.488281 340.007812"/></g></g></g><g clip-path="url(#x)"><g clip-path="url(#y)"><g clip-path="url(#z)"><path fill="#E1DCEF" d="M 541.421875 555.710938 C 514.289062 528.425781 515.988281 483.613281 544.492188 457.601562 C 577.875 427.191406 620.886719 403.410156 657.5625 459.511719 C 677.160156 489.488281 670.785156 530.089844 657.832031 568.6875 C 647.242188 600.273438 608.519531 612.015625 582.484375 591.367188 C 568.296875 580.121094 553.859375 568.207031 541.421875 555.710938"/></g></g></g></svg>