<svg xmlns="http://www.w3.org/2000/svg" width="1440" viewBox="0 0 1440 75" height="75" version="1.0"><path fill="#CC7974" d="M 57.464844 7.5 C -82.332031 7.5 -195.660156 36.714844 -195.660156 72.75 C -195.660156 108.785156 -82.332031 138 57.464844 138 C 197.261719 138 310.589844 108.785156 310.589844 72.75 C 310.589844 36.714844 197.261719 7.5 57.464844 7.5"/><path fill="#CC7974" d="M 367.859375 9.859375 C 313.804688 9.859375 269.984375 39.074219 269.984375 75.109375 C 269.984375 111.144531 313.804688 140.359375 367.859375 140.359375 C 421.914062 140.359375 465.734375 111.144531 465.734375 75.109375 C 465.734375 39.074219 421.914062 9.859375 367.859375 9.859375"/><path fill="#CC7974" d="M 509.621094 36.707031 C 445.625 36.707031 393.746094 59.542969 393.746094 87.707031 C 393.746094 115.875 445.625 138.707031 509.621094 138.707031 C 573.617188 138.707031 625.496094 115.875 625.496094 87.707031 C 625.496094 59.542969 573.617188 36.707031 509.621094 36.707031"/><path fill="#CC7974" d="M 741.144531 2.359375 C 661.199219 2.359375 596.394531 41.980469 596.394531 90.859375 C 596.394531 139.734375 661.199219 179.359375 741.144531 179.359375 C 821.085938 179.359375 885.894531 139.734375 885.894531 90.859375 C 885.894531 41.980469 821.085938 2.359375 741.144531 2.359375"/><path fill="#CC7974" d="M 1031.085938 9.859375 C 883.417969 9.859375 763.710938 39.074219 763.710938 75.109375 C 763.710938 111.144531 883.417969 140.359375 1031.085938 140.359375 C 1178.75 140.359375 1298.460938 111.144531 1298.460938 75.109375 C 1298.460938 39.074219 1178.75 9.859375 1031.085938 9.859375"/><path fill="#CC7974" d="M 1366.363281 2.359375 C 1301.539062 2.359375 1248.988281 54.910156 1248.988281 119.734375 C 1248.988281 184.558594 1301.539062 237.109375 1366.363281 237.109375 C 1431.1875 237.109375 1483.738281 184.558594 1483.738281 119.734375 C 1483.738281 54.910156 1431.1875 2.359375 1366.363281 2.359375"/></svg>