<svg xmlns="http://www.w3.org/2000/svg" xmlns:xlink="http://www.w3.org/1999/xlink" width="375" viewBox="0 0 375 375" height="375" version="1.0"><defs><clipPath id="b"><path d="M 7.546875 7.546875 L 367.546875 7.546875 L 367.546875 367.546875 L 7.546875 367.546875 Z M 7.546875 7.546875"/></clipPath><clipPath id="c"><path d="M 76.984375 76.984375 L 298.234375 76.984375 L 298.234375 298.234375 L 76.984375 298.234375 Z M 76.984375 76.984375"/></clipPath><clipPath id="j"><path d="M 160 148 L 244 148 L 244 275 L 160 275 Z M 160 148"/></clipPath><clipPath id="k"><path d="M 69.6875 180.097656 L 165.632812 59.957031 L 318.59375 182.113281 L 222.648438 302.25 Z M 69.6875 180.097656"/></clipPath><clipPath id="l"><path d="M 69.6875 180.097656 L 165.632812 59.957031 L 318.59375 182.113281 L 222.648438 302.25 Z M 69.6875 180.097656"/></clipPath><clipPath id="m"><path d="M 155 92 L 174 92 L 174 169 L 155 169 Z M 155 92"/></clipPath><clipPath id="n"><path d="M 69.6875 180.097656 L 165.632812 59.957031 L 318.59375 182.113281 L 222.648438 302.25 Z M 69.6875 180.097656"/></clipPath><clipPath id="o"><path d="M 69.6875 180.097656 L 165.632812 59.957031 L 318.59375 182.113281 L 222.648438 302.25 Z M 69.6875 180.097656"/></clipPath><clipPath id="p"><path d="M 164 93 L 174 93 L 174 157 L 164 157 Z M 164 93"/></clipPath><clipPath id="q"><path d="M 69.6875 180.097656 L 165.632812 59.957031 L 318.59375 182.113281 L 222.648438 302.25 Z M 69.6875 180.097656"/></clipPath><clipPath id="r"><path d="M 69.6875 180.097656 L 165.632812 59.957031 L 318.59375 182.113281 L 222.648438 302.25 Z M 69.6875 180.097656"/></clipPath><clipPath id="s"><path d="M 177 98 L 215 98 L 215 192 L 177 192 Z M 177 98"/></clipPath><clipPath id="t"><path d="M 69.6875 180.097656 L 165.632812 59.957031 L 318.59375 182.113281 L 222.648438 302.25 Z M 69.6875 180.097656"/></clipPath><clipPath id="u"><path d="M 69.6875 180.097656 L 165.632812 59.957031 L 318.59375 182.113281 L 222.648438 302.25 Z M 69.6875 180.097656"/></clipPath><clipPath id="v"><path d="M 112 128 L 181 128 L 181 201 L 112 201 Z M 112 128"/></clipPath><clipPath id="w"><path d="M 69.6875 180.097656 L 165.632812 59.957031 L 318.59375 182.113281 L 222.648438 302.25 Z M 69.6875 180.097656"/></clipPath><clipPath id="x"><path d="M 69.6875 180.097656 L 165.632812 59.957031 L 318.59375 182.113281 L 222.648438 302.25 Z M 69.6875 180.097656"/></clipPath><clipPath id="y"><path d="M 187 129 L 246 129 L 246 216 L 187 216 Z M 187 129"/></clipPath><clipPath id="z"><path d="M 69.6875 180.097656 L 165.632812 59.957031 L 318.59375 182.113281 L 222.648438 302.25 Z M 69.6875 180.097656"/></clipPath><clipPath id="A"><path d="M 69.6875 180.097656 L 165.632812 59.957031 L 318.59375 182.113281 L 222.648438 302.25 Z M 69.6875 180.097656"/></clipPath><clipPath id="B"><path d="M 196 173 L 258 173 L 258 228 L 196 228 Z M 196 173"/></clipPath><clipPath id="C"><path d="M 69.6875 180.097656 L 165.632812 59.957031 L 318.59375 182.113281 L 222.648438 302.25 Z M 69.6875 180.097656"/></clipPath><clipPath id="D"><path d="M 69.6875 180.097656 L 165.632812 59.957031 L 318.59375 182.113281 L 222.648438 302.25 Z M 69.6875 180.097656"/></clipPath><clipPath id="E"><path d="M 183 100 L 215 100 L 215 180 L 183 180 Z M 183 100"/></clipPath><clipPath id="F"><path d="M 69.6875 180.097656 L 165.632812 59.957031 L 318.59375 182.113281 L 222.648438 302.25 Z M 69.6875 180.097656"/></clipPath><clipPath id="G"><path d="M 69.6875 180.097656 L 165.632812 59.957031 L 318.59375 182.113281 L 222.648438 302.25 Z M 69.6875 180.097656"/></clipPath><clipPath id="H"><path d="M 187 132 L 246 132 L 246 215 L 187 215 Z M 187 132"/></clipPath><clipPath id="I"><path d="M 69.6875 180.097656 L 165.632812 59.957031 L 318.59375 182.113281 L 222.648438 302.25 Z M 69.6875 180.097656"/></clipPath><clipPath id="J"><path d="M 69.6875 180.097656 L 165.632812 59.957031 L 318.59375 182.113281 L 222.648438 302.25 Z M 69.6875 180.097656"/></clipPath><clipPath id="K"><path d="M 196 179 L 256 179 L 256 228 L 196 228 Z M 196 179"/></clipPath><clipPath id="L"><path d="M 69.6875 180.097656 L 165.632812 59.957031 L 318.59375 182.113281 L 222.648438 302.25 Z M 69.6875 180.097656"/></clipPath><clipPath id="M"><path d="M 69.6875 180.097656 L 165.632812 59.957031 L 318.59375 182.113281 L 222.648438 302.25 Z M 69.6875 180.097656"/></clipPath><clipPath id="N"><path d="M 112 128 L 170 128 L 170 193 L 112 193 Z M 112 128"/></clipPath><clipPath id="O"><path d="M 69.6875 180.097656 L 165.632812 59.957031 L 318.59375 182.113281 L 222.648438 302.25 Z M 69.6875 180.097656"/></clipPath><clipPath id="P"><path d="M 69.6875 180.097656 L 165.632812 59.957031 L 318.59375 182.113281 L 222.648438 302.25 Z M 69.6875 180.097656"/></clipPath><clipPath id="Q"><path d="M 156 98 L 237 98 L 237 189 L 156 189 Z M 156 98"/></clipPath><clipPath id="R"><path d="M 69.6875 180.097656 L 165.632812 59.957031 L 318.59375 182.113281 L 222.648438 302.25 Z M 69.6875 180.097656"/></clipPath><clipPath id="S"><path d="M 69.6875 180.097656 L 165.632812 59.957031 L 318.59375 182.113281 L 222.648438 302.25 Z M 69.6875 180.097656"/></clipPath><clipPath id="V"><path d="M 23 2 L 58 2 L 58 88 L 23 88 Z M 23 2"/></clipPath><clipPath id="W"><path d="M -86.3125 82.097656 L 9.632812 -38.042969 L 162.59375 84.113281 L 66.648438 204.25 Z M -86.3125 82.097656"/></clipPath><clipPath id="X"><path d="M -86.3125 82.097656 L 9.632812 -38.042969 L 162.59375 84.113281 L 66.648438 204.25 Z M -86.3125 82.097656"/></clipPath><clipPath id="U"><path d="M0 0H81V91H0z"/></clipPath><clipPath id="Y"><path d="M 183 123 L 257 123 L 257 209 L 183 209 Z M 183 123"/></clipPath><clipPath id="Z"><path d="M 69.6875 180.097656 L 165.632812 59.957031 L 318.59375 182.113281 L 222.648438 302.25 Z M 69.6875 180.097656"/></clipPath><clipPath id="aa"><path d="M 69.6875 180.097656 L 165.632812 59.957031 L 318.59375 182.113281 L 222.648438 302.25 Z M 69.6875 180.097656"/></clipPath><clipPath id="ad"><path d="M 8 5 L 63 5 L 63 77 L 8 77 Z M 8 5"/></clipPath><clipPath id="ae"><path d="M -113.3125 57.097656 L -17.367188 -63.042969 L 135.59375 59.113281 L 39.648438 179.25 Z M -113.3125 57.097656"/></clipPath><clipPath id="af"><path d="M -113.3125 57.097656 L -17.367188 -63.042969 L 135.59375 59.113281 L 39.648438 179.25 Z M -113.3125 57.097656"/></clipPath><clipPath id="ac"><path d="M0 0H74V86H0z"/></clipPath><clipPath id="ag"><path d="M 139 110 L 195 110 L 195 166 L 139 166 Z M 139 110"/></clipPath><clipPath id="ah"><path d="M 69.6875 180.097656 L 165.632812 59.957031 L 318.59375 182.113281 L 222.648438 302.25 Z M 69.6875 180.097656"/></clipPath><clipPath id="ai"><path d="M 69.6875 180.097656 L 165.632812 59.957031 L 318.59375 182.113281 L 222.648438 302.25 Z M 69.6875 180.097656"/></clipPath><clipPath id="al"><path d="M 17 3 L 32 3 L 32 54 L 17 54 Z M 17 3"/></clipPath><clipPath id="am"><path d="M -69.3125 70.097656 L 26.632812 -50.042969 L 179.59375 72.113281 L 83.648438 192.25 Z M -69.3125 70.097656"/></clipPath><clipPath id="an"><path d="M -69.3125 70.097656 L 26.632812 -50.042969 L 179.59375 72.113281 L 83.648438 192.25 Z M -69.3125 70.097656"/></clipPath><clipPath id="ak"><path d="M0 0H56V56H0z"/></clipPath><clipPath id="ao"><path d="M 147 100 L 185 100 L 185 139 L 147 139 Z M 147 100"/></clipPath><clipPath id="ap"><path d="M 69.6875 180.097656 L 165.632812 59.957031 L 318.59375 182.113281 L 222.648438 302.25 Z M 69.6875 180.097656"/></clipPath><clipPath id="aq"><path d="M 69.6875 180.097656 L 165.632812 59.957031 L 318.59375 182.113281 L 222.648438 302.25 Z M 69.6875 180.097656"/></clipPath><clipPath id="at"><path d="M 9 2 L 25 2 L 25 37 L 9 37 Z M 9 2"/></clipPath><clipPath id="au"><path d="M -77.3125 80.097656 L 18.632812 -40.042969 L 171.59375 82.113281 L 75.648438 202.25 Z M -77.3125 80.097656"/></clipPath><clipPath id="av"><path d="M -77.3125 80.097656 L 18.632812 -40.042969 L 171.59375 82.113281 L 75.648438 202.25 Z M -77.3125 80.097656"/></clipPath><clipPath id="as"><path d="M0 0H38V39H0z"/></clipPath><clipPath id="aw"><path d="M 112 132 L 158 132 L 158 175 L 112 175 Z M 112 132"/></clipPath><clipPath id="ax"><path d="M 69.6875 180.097656 L 165.632812 59.957031 L 318.59375 182.113281 L 222.648438 302.25 Z M 69.6875 180.097656"/></clipPath><clipPath id="ay"><path d="M 69.6875 180.097656 L 165.632812 59.957031 L 318.59375 182.113281 L 222.648438 302.25 Z M 69.6875 180.097656"/></clipPath><clipPath id="aB"><path d="M 9 3 L 37 3 L 37 40 L 9 40 Z M 9 3"/></clipPath><clipPath id="aC"><path d="M -42.3125 48.097656 L 53.632812 -72.042969 L 206.59375 50.113281 L 110.648438 170.25 Z M -42.3125 48.097656"/></clipPath><clipPath id="aD"><path d="M -42.3125 48.097656 L 53.632812 -72.042969 L 206.59375 50.113281 L 110.648438 170.25 Z M -42.3125 48.097656"/></clipPath><clipPath id="aA"><path d="M0 0H46V43H0z"/></clipPath><clipPath id="aE"><path d="M 114 192 L 193 192 L 193 223 L 114 223 Z M 114 192"/></clipPath><clipPath id="aF"><path d="M 69.6875 180.097656 L 165.632812 59.957031 L 318.59375 182.113281 L 222.648438 302.25 Z M 69.6875 180.097656"/></clipPath><clipPath id="aG"><path d="M 69.6875 180.097656 L 165.632812 59.957031 L 318.59375 182.113281 L 222.648438 302.25 Z M 69.6875 180.097656"/></clipPath><clipPath id="aH"><path d="M 126 221 L 204 221 L 204 242 L 126 242 Z M 126 221"/></clipPath><clipPath id="aI"><path d="M 69.6875 180.097656 L 165.632812 59.957031 L 318.59375 182.113281 L 222.648438 302.25 Z M 69.6875 180.097656"/></clipPath><clipPath id="aJ"><path d="M 69.6875 180.097656 L 165.632812 59.957031 L 318.59375 182.113281 L 222.648438 302.25 Z M 69.6875 180.097656"/></clipPath><clipPath id="aK"><path d="M 129 199 L 203 199 L 203 268 L 129 268 Z M 129 199"/></clipPath><clipPath id="aL"><path d="M 69.6875 180.097656 L 165.632812 59.957031 L 318.59375 182.113281 L 222.648438 302.25 Z M 69.6875 180.097656"/></clipPath><clipPath id="aM"><path d="M 69.6875 180.097656 L 165.632812 59.957031 L 318.59375 182.113281 L 222.648438 302.25 Z M 69.6875 180.097656"/></clipPath><clipPath id="aP"><path d="M 0.121094 28 L 73 28 L 73 43 L 0.121094 43 Z M 0.121094 28"/></clipPath><clipPath id="aQ"><path d="M -59.3125 -18.902344 L 36.632812 -139.042969 L 189.59375 -16.886719 L 93.648438 103.25 Z M -59.3125 -18.902344"/></clipPath><clipPath id="aR"><path d="M -59.3125 -18.902344 L 36.632812 -139.042969 L 189.59375 -16.886719 L 93.648438 103.25 Z M -59.3125 -18.902344"/></clipPath><clipPath id="aO"><path d="M0 0H74V69H0z"/></clipPath><clipPath id="aS"><path d="M 114 196 L 189 196 L 189 223 L 114 223 Z M 114 196"/></clipPath><clipPath id="aT"><path d="M 69.6875 180.097656 L 165.632812 59.957031 L 318.59375 182.113281 L 222.648438 302.25 Z M 69.6875 180.097656"/></clipPath><clipPath id="aU"><path d="M 69.6875 180.097656 L 165.632812 59.957031 L 318.59375 182.113281 L 222.648438 302.25 Z M 69.6875 180.097656"/></clipPath><clipPath id="aV"><path d="M 199 161 L 261 161 L 261 230 L 199 230 Z M 199 161"/></clipPath><clipPath id="aW"><path d="M 69.6875 180.097656 L 165.632812 59.957031 L 318.59375 182.113281 L 222.648438 302.25 Z M 69.6875 180.097656"/></clipPath><clipPath id="aX"><path d="M 69.6875 180.097656 L 165.632812 59.957031 L 318.59375 182.113281 L 222.648438 302.25 Z M 69.6875 180.097656"/></clipPath><clipPath id="ba"><path d="M 2 13 L 59 13 L 59 56 L 2 56 Z M 2 13"/></clipPath><clipPath id="bb"><path d="M -129.3125 19.097656 L -33.367188 -101.042969 L 119.59375 21.113281 L 23.648438 141.25 Z M -129.3125 19.097656"/></clipPath><clipPath id="bc"><path d="M -129.3125 19.097656 L -33.367188 -101.042969 L 119.59375 21.113281 L 23.648438 141.25 Z M -129.3125 19.097656"/></clipPath><clipPath id="aZ"><path d="M0 0H62V69H0z"/></clipPath><clipPath id="bd"><path d="M 111 171 L 195 171 L 195 247 L 111 247 Z M 111 171"/></clipPath><clipPath id="be"><path d="M 69.6875 180.097656 L 165.632812 59.957031 L 318.59375 182.113281 L 222.648438 302.25 Z M 69.6875 180.097656"/></clipPath><clipPath id="bf"><path d="M 69.6875 180.097656 L 165.632812 59.957031 L 318.59375 182.113281 L 222.648438 302.25 Z M 69.6875 180.097656"/></clipPath><clipPath id="bi"><path d="M 3 21 L 81 21 L 81 51 L 3 51 Z M 3 21"/></clipPath><clipPath id="bj"><path d="M -41.3125 9.097656 L 54.632812 -111.042969 L 207.59375 11.113281 L 111.648438 131.25 Z M -41.3125 9.097656"/></clipPath><clipPath id="bk"><path d="M -41.3125 9.097656 L 54.632812 -111.042969 L 207.59375 11.113281 L 111.648438 131.25 Z M -41.3125 9.097656"/></clipPath><clipPath id="bh"><path d="M0 0H84V76H0z"/></clipPath><clipPath id="bl"><path d="M 132 198 L 204 198 L 204 266 L 132 266 Z M 132 198"/></clipPath><clipPath id="bm"><path d="M 69.6875 180.097656 L 165.632812 59.957031 L 318.59375 182.113281 L 222.648438 302.25 Z M 69.6875 180.097656"/></clipPath><clipPath id="bn"><path d="M 69.6875 180.097656 L 165.632812 59.957031 L 318.59375 182.113281 L 222.648438 302.25 Z M 69.6875 180.097656"/></clipPath><clipPath id="bq"><path d="M 3 25 L 70 25 L 70 42 L 3 42 Z M 3 25"/></clipPath><clipPath id="br"><path d="M -62.3125 -17.902344 L 33.632812 -138.042969 L 186.59375 -15.886719 L 90.648438 104.25 Z M -62.3125 -17.902344"/></clipPath><clipPath id="bs"><path d="M -62.3125 -17.902344 L 33.632812 -138.042969 L 186.59375 -15.886719 L 90.648438 104.25 Z M -62.3125 -17.902344"/></clipPath><clipPath id="bp"><path d="M0 0H72V68H0z"/></clipPath><g id="d"><path d="M 7.984375 15.03125 C 7.203125 13.738281 6.570312 12.234375 6.09375 10.515625 C 5.625 8.796875 5.382812 7.097656 5.375 5.421875 L 5.34375 5.375 L 3.453125 6.703125 L 1.265625 3.046875 L 12.375 -3.625 L 14.25 -0.484375 C 11.90625 1.484375 10.519531 3.675781 10.09375 6.09375 C 9.664062 8.507812 10.132812 10.851562 11.5 13.125 C 12.488281 14.769531 13.738281 15.867188 15.25 16.421875 C 16.757812 16.984375 18.132812 16.890625 19.375 16.140625 C 20.382812 15.535156 21.039062 14.65625 21.34375 13.5 C 21.644531 12.351562 21.738281 11.222656 21.625 10.109375 C 21.519531 8.992188 21.273438 7.257812 20.890625 4.90625 C 20.191406 0.582031 20.175781 -3.035156 20.84375 -5.953125 C 21.507812 -8.878906 23.28125 -11.207031 26.15625 -12.9375 C 27.613281 -13.800781 29.25 -14.28125 31.0625 -14.375 C 32.882812 -14.46875 34.75 -13.957031 36.65625 -12.84375 C 38.570312 -11.738281 40.316406 -9.875 41.890625 -7.25 C 42.703125 -5.894531 43.359375 -4.351562 43.859375 -2.625 C 44.367188 -0.894531 44.550781 0.679688 44.40625 2.109375 L 44.421875 2.15625 L 46.265625 0.796875 L 48.484375 4.484375 L 37.421875 11.125 L 35.546875 8 C 37.890625 6.019531 39.320312 3.914062 39.84375 1.6875 C 40.363281 -0.53125 39.96875 -2.734375 38.65625 -4.921875 C 37.800781 -6.335938 36.671875 -7.328125 35.265625 -7.890625 C 33.867188 -8.453125 32.585938 -8.382812 31.421875 -7.6875 C 30.023438 -6.84375 29.207031 -5.550781 28.96875 -3.8125 C 28.726562 -2.070312 28.875 0.53125 29.40625 4 C 30.050781 7.96875 30.144531 11.453125 29.6875 14.453125 C 29.238281 17.460938 27.632812 19.796875 24.875 21.453125 C 23.007812 22.566406 21.039062 23.050781 18.96875 22.90625 C 16.90625 22.769531 14.921875 22.023438 13.015625 20.671875 C 11.109375 19.316406 9.429688 17.4375 7.984375 15.03125 Z M 7.984375 15.03125"/></g><g id="e"><path d="M 4.359375 -1.390625 C 5.203125 -0.835938 5.894531 -0.492188 6.4375 -0.359375 C 6.976562 -0.234375 7.554688 -0.351562 8.171875 -0.71875 C 8.796875 -1.09375 9.523438 -1.863281 10.359375 -3.03125 L 22.609375 -20.359375 C 23.804688 -22.054688 24.828125 -23.375 25.671875 -24.3125 L 22.1875 -26.578125 L 24.640625 -30.046875 L 37.640625 -20.859375 L 35.53125 -17.890625 C 34.6875 -18.429688 33.992188 -18.769531 33.453125 -18.90625 C 32.910156 -19.039062 32.328125 -18.921875 31.703125 -18.546875 C 31.078125 -18.171875 30.351562 -17.394531 29.53125 -16.21875 L 24.53125 -9.15625 L 36.96875 -0.359375 L 41.609375 -6.921875 C 43.046875 -8.941406 44.0625 -10.257812 44.65625 -10.875 L 41.1875 -13.140625 L 43.640625 -16.609375 L 56.625 -7.421875 L 54.515625 -4.453125 C 53.679688 -4.992188 52.992188 -5.332031 52.453125 -5.46875 C 51.910156 -5.601562 51.320312 -5.484375 50.6875 -5.109375 C 50.0625 -4.742188 49.335938 -3.972656 48.515625 -2.796875 L 36.265625 14.53125 C 35.066406 16.207031 34.046875 17.519531 33.203125 18.46875 C 34.234375 19.0625 35.398438 19.816406 36.703125 20.734375 L 34.234375 24.21875 L 21.25 15.03125 L 23.359375 12.046875 C 24.191406 12.597656 24.878906 12.9375 25.421875 13.0625 C 25.960938 13.195312 26.546875 13.078125 27.171875 12.703125 C 27.796875 12.335938 28.523438 11.570312 29.359375 10.40625 L 34.546875 3.0625 L 22.015625 -5.59375 L 17.28125 1.109375 C 16.082031 2.785156 15.054688 4.09375 14.203125 5.03125 C 15.242188 5.625 16.414062 6.378906 17.71875 7.296875 L 15.25 10.78125 L 2.25 1.59375 Z M 4.359375 -1.390625"/></g><g id="f"><path d="M 0.9375 -3.71875 C 1.875 -3.539062 2.707031 -3.660156 3.4375 -4.078125 C 4.175781 -4.503906 4.800781 -5.070312 5.3125 -5.78125 C 5.832031 -6.488281 6.503906 -7.539062 7.328125 -8.9375 L 23.453125 -36.046875 L 27.25 -35.3125 L 33.234375 -3.453125 C 33.390625 -2.679688 33.53125 -1.726562 33.65625 -0.59375 C 33.78125 0.539062 33.8125 1.476562 33.75 2.21875 C 34.957031 2.332031 36.019531 2.476562 36.9375 2.65625 L 36.140625 6.84375 L 21.5 4.0625 L 22.1875 0.46875 C 23.925781 0.800781 24.929688 0.242188 25.203125 -1.203125 C 25.335938 -1.929688 25.300781 -2.835938 25.09375 -3.921875 L 24.59375 -7.125 L 12.71875 -9.15625 L 11.375 -6.75 C 11.207031 -6.488281 10.832031 -5.882812 10.25 -4.9375 C 9.675781 -3.988281 9.191406 -3.234375 8.796875 -2.671875 C 9.984375 -2.566406 11.285156 -2.378906 12.703125 -2.109375 L 11.875 2.25 L 0.21875 0.046875 Z M 23.953125 -11.265625 L 22.734375 -18.53125 C 22.242188 -21.695312 22.019531 -24.304688 22.0625 -26.359375 L 22.015625 -26.375 C 20.941406 -23.875 19.816406 -21.609375 18.640625 -19.578125 L 14.859375 -12.984375 Z M 23.953125 -11.265625"/></g><g id="g"><path d="M 1.921875 -4.15625 C 2.890625 -4.414062 3.597656 -4.695312 4.046875 -5 C 4.503906 -5.3125 4.804688 -5.820312 4.953125 -6.53125 C 5.109375 -7.25 5.03125 -8.3125 4.71875 -9.71875 L 0.140625 -30.4375 C -0.304688 -32.46875 -0.59375 -34.109375 -0.71875 -35.359375 L -4.75 -34.296875 L -5.65625 -38.453125 L 9.671875 -41.953125 C 14.609375 -43.078125 18.613281 -43.050781 21.6875 -41.875 C 24.757812 -40.707031 26.734375 -38.144531 27.609375 -34.1875 C 28.160156 -31.6875 27.847656 -29.296875 26.671875 -27.015625 C 25.492188 -24.734375 23.4375 -22.796875 20.5 -21.203125 L 20.515625 -21.171875 C 21.210938 -21.046875 21.972656 -20.742188 22.796875 -20.265625 C 23.617188 -19.785156 24.351562 -19.21875 25 -18.5625 L 28.375 -15.34375 C 30.019531 -13.695312 31.328125 -12.601562 32.296875 -12.0625 C 33.273438 -11.53125 34.363281 -11.375 35.5625 -11.59375 L 36.34375 -8.03125 L 27.421875 -6.0625 C 26.710938 -6.363281 25.960938 -6.847656 25.171875 -7.515625 C 24.378906 -8.191406 23.441406 -9.109375 22.359375 -10.265625 L 16.90625 -15.875 C 15.695312 -17.113281 14.707031 -17.988281 13.9375 -18.5 L 11.140625 -17.875 L 12.421875 -12.09375 C 12.867188 -10.039062 13.15625 -8.382812 13.28125 -7.125 C 14.40625 -7.5 15.925781 -7.894531 17.84375 -8.3125 L 18.765625 -4.140625 L 2.703125 -0.59375 Z M 12.875 -22.34375 C 15.832031 -23 17.820312 -24.128906 18.84375 -25.734375 C 19.875 -27.347656 20.078125 -29.566406 19.453125 -32.390625 C 18.796875 -35.378906 17.59375 -37.1875 15.84375 -37.8125 C 14.09375 -38.445312 12.296875 -38.5625 10.453125 -38.15625 C 9.191406 -37.875 8.332031 -37.398438 7.875 -36.734375 C 7.425781 -36.066406 7.394531 -34.847656 7.78125 -33.078125 L 10.234375 -22 C 11.335938 -22.082031 12.21875 -22.195312 12.875 -22.34375 Z M 12.875 -22.34375"/></g><g id="h"><path d="M 0.578125 -23.265625 C -0.660156 -23.910156 -2.304688 -24.894531 -4.359375 -26.21875 C -6.421875 -27.550781 -8.40625 -28.984375 -10.3125 -30.515625 L -10.359375 -30.484375 C -8.148438 -27.941406 -6.175781 -25.601562 -4.4375 -23.46875 L -3.25 -22 L 3.03125 -14.171875 C 4.476562 -12.398438 5.457031 -11.050781 5.96875 -10.125 C 6.84375 -10.988281 7.894531 -11.921875 9.125 -12.921875 L 11.8125 -9.609375 L 2.03125 -1.640625 L -0.28125 -4.484375 C 0.457031 -5.140625 0.960938 -5.707031 1.234375 -6.1875 C 1.515625 -6.675781 1.554688 -7.269531 1.359375 -7.96875 C 1.171875 -8.664062 0.625 -9.578125 -0.28125 -10.703125 L -13.40625 -27.375 C -15.039062 -29.507812 -16.03125 -30.84375 -16.375 -31.375 L -19.5 -28.640625 L -22.171875 -31.9375 L -12.6875 -39.65625 L 7.328125 -28.3125 C 8.660156 -27.53125 10.117188 -26.664062 11.703125 -25.71875 C 13.285156 -24.769531 14.472656 -24.019531 15.265625 -23.46875 L 15.3125 -23.5 C 15.1875 -23.882812 14.773438 -25.03125 14.078125 -26.9375 C 13.523438 -28.4375 13.066406 -29.726562 12.703125 -30.8125 L 4.953125 -53.984375 L 14.875 -62.0625 L 17.171875 -59.234375 C 16.410156 -58.566406 15.878906 -57.976562 15.578125 -57.46875 C 15.285156 -56.96875 15.234375 -56.363281 15.421875 -55.65625 C 15.617188 -54.957031 16.179688 -54.054688 17.109375 -52.953125 L 31.140625 -37.03125 C 32.410156 -35.632812 33.40625 -34.296875 34.125 -33.015625 C 34.988281 -33.867188 36.039062 -34.800781 37.28125 -35.8125 L 39.96875 -32.5 L 28.015625 -22.78125 L 25.703125 -25.625 C 26.460938 -26.289062 26.984375 -26.867188 27.265625 -27.359375 C 27.546875 -27.847656 27.59375 -28.441406 27.40625 -29.140625 C 27.226562 -29.835938 26.671875 -30.738281 25.734375 -31.84375 L 17.984375 -40.671875 L 16.546875 -42.25 C 14.148438 -44.894531 12.492188 -46.753906 11.578125 -47.828125 L 11.546875 -47.796875 L 21.875 -17.078125 L 17.875 -13.828125 Z M 0.578125 -23.265625"/></g><g id="i"><path d="M -3.390625 -1.78125 C -2.992188 -2.65625 -2.914062 -3.5 -3.15625 -4.3125 C -3.394531 -5.125 -3.796875 -5.863281 -4.359375 -6.53125 C -4.921875 -7.195312 -5.785156 -8.09375 -6.953125 -9.21875 L -29.4375 -31.328125 L -27.84375 -34.859375 L 4.53125 -33.109375 C 5.320312 -33.066406 6.28125 -32.972656 7.40625 -32.828125 C 8.539062 -32.679688 9.453125 -32.488281 10.140625 -32.25 C 10.546875 -33.40625 10.941406 -34.40625 11.328125 -35.25 L 15.21875 -33.484375 L 9.046875 -19.921875 L 5.71875 -21.4375 C 6.445312 -23.039062 6.140625 -24.148438 4.796875 -24.765625 C 4.117188 -25.066406 3.226562 -25.25 2.125 -25.3125 L -1.109375 -25.578125 L -5.875 -14.53125 L -3.859375 -12.65625 C -3.640625 -12.425781 -3.140625 -11.921875 -2.359375 -11.140625 C -1.578125 -10.359375 -0.960938 -9.703125 -0.515625 -9.171875 C -0.128906 -10.296875 0.359375 -11.515625 0.953125 -12.828125 L 5 -11 L 0.09375 -0.203125 Z M -5.25 -25.9375 L -12.609375 -26.484375 C -15.804688 -26.753906 -18.398438 -27.160156 -20.390625 -27.703125 L -20.40625 -27.65625 C -18.238281 -26.007812 -16.304688 -24.375 -14.609375 -22.75 L -9.078125 -17.515625 Z M -5.25 -25.9375"/></g><g id="bt"><path d="M -3.578125 -1.390625 C -3.273438 -2.304688 -3.285156 -3.15625 -3.609375 -3.9375 C -3.941406 -4.726562 -4.425781 -5.421875 -5.0625 -6.015625 C -5.695312 -6.609375 -6.648438 -7.40625 -7.921875 -8.40625 L -32.75 -27.859375 L -31.546875 -31.546875 L 0.8125 -33.40625 C 1.613281 -33.457031 2.582031 -33.46875 3.71875 -33.4375 C 4.851562 -33.414062 5.785156 -33.328125 6.515625 -33.171875 C 6.773438 -34.367188 7.050781 -35.410156 7.34375 -36.296875 L 11.40625 -34.96875 L 6.78125 -20.796875 L 3.3125 -21.9375 C 3.863281 -23.625 3.4375 -24.695312 2.03125 -25.15625 C 1.320312 -25.382812 0.414062 -25.460938 -0.6875 -25.390625 L -3.921875 -25.296875 L -7.453125 -13.78125 L -5.234375 -12.15625 C -5.003906 -11.945312 -4.457031 -11.492188 -3.59375 -10.796875 C -2.726562 -10.109375 -2.039062 -9.53125 -1.53125 -9.0625 C -1.269531 -10.226562 -0.914062 -11.492188 -0.46875 -12.859375 L 3.75 -11.484375 L 0.0625 -0.203125 Z M -8.109375 -25.1875 L -15.46875 -24.90625 C -18.675781 -24.820312 -21.296875 -24.941406 -23.328125 -25.265625 L -23.34375 -25.21875 C -21.007812 -23.832031 -18.90625 -22.421875 -17.03125 -20.984375 L -10.96875 -16.40625 Z M -8.109375 -25.1875"/></g><g id="bu"><path d="M -6.609375 -25.59375 C -8.097656 -25.707031 -9.804688 -25.882812 -11.734375 -26.125 L -11.765625 -26.09375 L 1.015625 -14.640625 C 2.535156 -13.242188 3.71875 -12.066406 4.5625 -11.109375 C 5.28125 -12.066406 6.171875 -13.128906 7.234375 -14.296875 L 10.390625 -11.4375 L 1.90625 -2.09375 L -0.796875 -4.546875 C -0.160156 -5.316406 0.253906 -5.957031 0.453125 -6.46875 C 0.648438 -6.988281 0.597656 -7.582031 0.296875 -8.25 C 0.00390625 -8.914062 -0.671875 -9.726562 -1.734375 -10.6875 L -17.515625 -24.875 C -19.347656 -26.539062 -20.523438 -27.710938 -21.046875 -28.390625 L -23.78125 -25.171875 L -26.921875 -28.03125 L -21.0625 -34.46875 L 6.140625 -32.640625 C 8.679688 -32.421875 10.851562 -32.203125 12.65625 -31.984375 L 12.6875 -32.015625 L -0.3125 -43.8125 C -2.09375 -45.425781 -3.285156 -46.585938 -3.890625 -47.296875 L -6.578125 -44.125 L -9.71875 -46.984375 L -1.234375 -56.328125 L 1.46875 -53.875 C 0.832031 -53.101562 0.410156 -52.457031 0.203125 -51.9375 C 0.00390625 -51.425781 0.0546875 -50.835938 0.359375 -50.171875 C 0.660156 -49.503906 1.34375 -48.6875 2.40625 -47.71875 L 25.25 -26.984375 L 22.078125 -23.484375 Z M -6.609375 -25.59375"/></g><g id="bv"><path d="M -1.328125 -3.609375 C -0.453125 -3.984375 0.164062 -4.550781 0.53125 -5.3125 C 0.90625 -6.082031 1.101562 -6.898438 1.125 -7.765625 C 1.15625 -8.640625 1.113281 -9.890625 1 -11.515625 L -0.9375 -42.984375 L 2.609375 -44.53125 L 25.515625 -21.59375 C 26.066406 -21.03125 26.710938 -20.316406 27.453125 -19.453125 C 28.203125 -18.585938 28.753906 -17.832031 29.109375 -17.1875 C 30.191406 -17.78125 31.15625 -18.257812 32 -18.625 L 33.703125 -14.71875 L 20.046875 -8.75 L 18.578125 -12.09375 C 20.203125 -12.800781 20.71875 -13.835938 20.125 -15.203125 C 19.832031 -15.878906 19.289062 -16.609375 18.5 -17.390625 L 16.28125 -19.75 L 5.34375 -14.734375 L 5.59375 -11.984375 C 5.601562 -11.679688 5.632812 -10.972656 5.6875 -9.859375 C 5.75 -8.753906 5.769531 -7.859375 5.75 -7.171875 C 6.789062 -7.742188 7.96875 -8.316406 9.28125 -8.890625 L 11.0625 -4.828125 L 0.203125 -0.09375 Z M 13.4375 -22.796875 L 8.328125 -28.125 C 6.140625 -30.46875 4.484375 -32.5 3.359375 -34.21875 L 3.3125 -34.203125 C 3.832031 -31.535156 4.175781 -29.023438 4.34375 -26.671875 L 4.96875 -19.09375 Z M 13.4375 -22.796875"/></g><g id="bw"><path d="M 2.828125 -3.609375 C 3.828125 -3.628906 4.585938 -3.738281 5.109375 -3.9375 C 5.628906 -4.132812 6.039062 -4.5625 6.34375 -5.21875 C 6.65625 -5.875 6.820312 -6.921875 6.84375 -8.359375 L 7.203125 -29.578125 C 7.234375 -31.648438 7.332031 -33.3125 7.5 -34.5625 L 3.34375 -34.46875 L 3.421875 -38.71875 L 19.328125 -38.453125 L 19.265625 -34.8125 C 18.265625 -34.789062 17.503906 -34.679688 16.984375 -34.484375 C 16.460938 -34.285156 16.046875 -33.851562 15.734375 -33.1875 C 15.429688 -32.53125 15.269531 -31.484375 15.25 -30.046875 L 15.09375 -21.40625 L 30.328125 -21.15625 L 30.46875 -29.1875 C 30.507812 -31.664062 30.609375 -33.328125 30.765625 -34.171875 L 26.609375 -34.078125 L 26.6875 -38.328125 L 42.59375 -38.0625 L 42.53125 -34.421875 C 41.53125 -34.398438 40.769531 -34.289062 40.25 -34.09375 C 39.726562 -33.894531 39.3125 -33.460938 39 -32.796875 C 38.695312 -32.140625 38.535156 -31.09375 38.515625 -29.65625 L 38.15625 -8.4375 C 38.113281 -6.375 38.007812 -4.710938 37.84375 -3.453125 C 39.03125 -3.546875 40.421875 -3.582031 42.015625 -3.5625 L 41.9375 0.703125 L 26.03125 0.4375 L 26.09375 -3.21875 C 27.09375 -3.238281 27.851562 -3.347656 28.375 -3.546875 C 28.894531 -3.742188 29.304688 -4.171875 29.609375 -4.828125 C 29.921875 -5.484375 30.085938 -6.53125 30.109375 -7.96875 L 30.265625 -16.953125 L 15.03125 -17.03125 L 14.890625 -8.828125 C 14.847656 -6.765625 14.742188 -5.101562 14.578125 -3.84375 C 15.765625 -3.9375 17.15625 -3.972656 18.75 -3.953125 L 18.671875 0.3125 L 2.765625 0.046875 Z M 2.828125 -3.609375"/></g><g id="bx"><path d="M 3.953125 -2.328125 C 4.890625 -1.984375 5.632812 -1.804688 6.1875 -1.796875 C 6.738281 -1.796875 7.273438 -2.046875 7.796875 -2.546875 C 8.328125 -3.046875 8.867188 -3.957031 9.421875 -5.28125 L 17.46875 -24.921875 C 18.257812 -26.835938 18.957031 -28.347656 19.5625 -29.453125 L 15.65625 -30.890625 L 17.28125 -34.8125 L 32 -28.78125 L 30.609375 -25.421875 C 29.671875 -25.753906 28.921875 -25.925781 28.359375 -25.9375 C 27.804688 -25.945312 27.265625 -25.695312 26.734375 -25.1875 C 26.203125 -24.6875 25.664062 -23.769531 25.125 -22.4375 L 17.0625 -2.8125 C 16.28125 -0.894531 15.582031 0.617188 14.96875 1.734375 C 16.113281 2.054688 17.425781 2.519531 18.90625 3.125 L 17.28125 7.078125 L 2.5625 1.046875 Z M 3.953125 -2.328125"/></g><g id="by"><path d="M 9.859375 3.9375 C 10.640625 4.570312 11.289062 4.984375 11.8125 5.171875 C 12.332031 5.367188 12.921875 5.316406 13.578125 5.015625 C 14.242188 4.722656 15.054688 4.039062 16.015625 2.96875 L 33.703125 -16.796875 L 31.8125 -18.5 C 30.164062 -19.914062 28.421875 -20.484375 26.578125 -20.203125 C 24.734375 -19.921875 22.84375 -18.695312 20.90625 -16.53125 L 18.171875 -18.96875 L 26.71875 -28.109375 L 51.734375 -5.703125 L 43.640625 3.828125 L 40.90625 1.390625 C 42.84375 -0.773438 43.867188 -2.816406 43.984375 -4.734375 C 44.097656 -6.660156 43.34375 -8.320312 41.71875 -9.71875 L 39.734375 -11.484375 L 22.40625 7.875 C 20.75 9.71875 19.585938 10.90625 18.921875 11.4375 C 19.898438 12.164062 21.03125 13.109375 22.3125 14.265625 L 19.46875 17.4375 L 7.421875 6.65625 Z M 9.859375 3.9375"/></g><g id="bz"><path d="M 3.546875 -1.4375 C 3.953125 -0.570312 4.546875 0.03125 5.328125 0.375 C 6.109375 0.71875 6.929688 0.882812 7.796875 0.875 C 8.671875 0.875 9.914062 0.800781 11.53125 0.65625 L 42.9375 -2.28125 L 44.59375 1.21875 L 22.390625 24.8125 C 21.847656 25.394531 21.15625 26.066406 20.3125 26.828125 C 19.46875 27.597656 18.726562 28.175781 18.09375 28.5625 C 18.71875 29.613281 19.234375 30.554688 19.640625 31.390625 L 15.78125 33.21875 L 9.375 19.765625 L 12.671875 18.203125 C 13.429688 19.796875 14.484375 20.273438 15.828125 19.640625 C 16.492188 19.316406 17.207031 18.753906 17.96875 17.953125 L 20.25 15.65625 L 14.890625 4.875 L 12.15625 5.21875 C 11.851562 5.238281 11.144531 5.289062 10.03125 5.375 C 8.925781 5.46875 8.03125 5.519531 7.34375 5.53125 C 7.957031 6.550781 8.578125 7.707031 9.203125 9 L 5.1875 10.90625 L 0.09375 0.203125 Z M 23.203125 12.703125 L 28.359375 7.4375 C 30.628906 5.175781 32.613281 3.457031 34.3125 2.28125 L 34.28125 2.234375 C 31.632812 2.847656 29.144531 3.273438 26.8125 3.515625 L 19.25 4.359375 Z M 23.203125 12.703125"/></g><mask id="T"><g filter="url(#a)"><path fill-opacity=".6" d="M-37.5 -37.5H412.5V412.5H-37.5z"/></g></mask><mask id="ab"><g filter="url(#a)"><path fill-opacity=".6" d="M-37.5 -37.5H412.5V412.5H-37.5z"/></g></mask><mask id="aj"><g filter="url(#a)"><path fill-opacity=".6" d="M-37.5 -37.5H412.5V412.5H-37.5z"/></g></mask><mask id="ar"><g filter="url(#a)"><path fill-opacity=".6" d="M-37.5 -37.5H412.5V412.5H-37.5z"/></g></mask><mask id="az"><g filter="url(#a)"><path fill-opacity=".6" d="M-37.5 -37.5H412.5V412.5H-37.5z"/></g></mask><mask id="aN"><g filter="url(#a)"><path fill-opacity=".698" d="M-37.5 -37.5H412.5V412.5H-37.5z"/></g></mask><mask id="aY"><g filter="url(#a)"><path fill-opacity=".6" d="M-37.5 -37.5H412.5V412.5H-37.5z"/></g></mask><mask id="bg"><g filter="url(#a)"><path fill-opacity=".6" d="M-37.5 -37.5H412.5V412.5H-37.5z"/></g></mask><mask id="bo"><g filter="url(#a)"><path fill-opacity=".6" d="M-37.5 -37.5H412.5V412.5H-37.5z"/></g></mask><filter x="0%" y="0%" width="100%" xmlns:xlink="http://www.w3.org/1999/xlink" xlink:type="simple" xlink:actuate="onLoad" height="100%" id="a" xlink:show="other"><feColorMatrix values="0 0 0 0 1 0 0 0 0 1 0 0 0 0 1 0 0 0 1 0" color-interpolation-filters="sRGB"/></filter></defs><path fill="#FFF" d="M-37.5 -37.5H412.5V412.5H-37.5z"/><path fill="#FFF" d="M-37.5 -37.5H412.5V412.5H-37.5z"/><path fill="#FFF" d="M-37.5 -37.5H412.5V412.5H-37.5z"/><g clip-path="url(#b)"><path d="M 187.488281 367.546875 C 88.320312 367.546875 7.546875 286.777344 7.546875 187.488281 C 7.546875 88.199219 88.320312 7.546875 187.488281 7.546875 C 286.652344 7.546875 367.425781 88.320312 367.425781 187.488281 C 367.546875 286.777344 286.777344 367.546875 187.488281 367.546875 Z M 187.488281 10.59375 C 89.902344 10.59375 10.59375 89.902344 10.59375 187.488281 C 10.59375 285.070312 90.023438 364.5 187.488281 364.5 C 284.949219 364.5 364.5 285.070312 364.5 187.488281 C 364.5 89.902344 285.070312 10.59375 187.488281 10.59375 Z M 187.488281 10.59375"/></g><g clip-path="url(#c)"><path d="M 187.570312 298.234375 C 126.625 298.234375 76.984375 248.589844 76.984375 187.570312 C 76.984375 126.546875 126.625 76.984375 187.570312 76.984375 C 248.515625 76.984375 298.15625 126.625 298.15625 187.570312 C 298.234375 248.589844 248.589844 298.234375 187.570312 298.234375 Z M 187.570312 78.855469 C 127.597656 78.855469 78.855469 127.597656 78.855469 187.570312 C 78.855469 247.542969 127.671875 296.359375 187.570312 296.359375 C 247.46875 296.359375 296.359375 247.542969 296.359375 187.570312 C 296.359375 127.597656 247.542969 78.855469 187.570312 78.855469 Z M 187.570312 78.855469"/></g><g><use x="35.873" y="260.654" xmlns:xlink="http://www.w3.org/1999/xlink" xlink:href="#d" xlink:type="simple" xlink:actuate="onLoad" xlink:show="embed"/></g><g><use x="70.583" y="309.859" xmlns:xlink="http://www.w3.org/1999/xlink" xlink:href="#e" xlink:type="simple" xlink:actuate="onLoad" xlink:show="embed"/></g><g><use x="132.804" y="345.704" xmlns:xlink="http://www.w3.org/1999/xlink" xlink:href="#f" xlink:type="simple" xlink:actuate="onLoad" xlink:show="embed"/></g><g><use x="196.182" y="352.275" xmlns:xlink="http://www.w3.org/1999/xlink" xlink:href="#g" xlink:type="simple" xlink:actuate="onLoad" xlink:show="embed"/></g><g><use x="259.743" y="333.326" xmlns:xlink="http://www.w3.org/1999/xlink" xlink:href="#h" xlink:type="simple" xlink:actuate="onLoad" xlink:show="embed"/></g><g><use x="317.351" y="275.691" xmlns:xlink="http://www.w3.org/1999/xlink" xlink:href="#i" xlink:type="simple" xlink:actuate="onLoad" xlink:show="embed"/></g><g clip-path="url(#j)"><g clip-path="url(#k)"><g clip-path="url(#l)"><path d="M 243.039062 272.136719 C 220.949219 259.8125 204.675781 239.75 192.160156 218.140625 C 179.617188 196.480469 170.703125 172.859375 162.941406 149.132812 C 162.441406 147.621094 160.125 148.445312 160.621094 149.949219 C 168.546875 174.183594 177.75 198.144531 190.554688 220.269531 C 203.144531 242.003906 219.828125 261.996094 242.003906 274.371094 C 243.386719 275.144531 244.425781 272.910156 243.039062 272.136719 Z M 243.039062 272.136719"/></g></g></g><g clip-path="url(#m)"><g clip-path="url(#n)"><g clip-path="url(#o)"><path d="M 168.964844 167.222656 C 167.347656 156.621094 166.8125 146.707031 170.160156 136.390625 C 171.457031 132.386719 172.847656 128.460938 173.339844 124.253906 C 173.992188 118.652344 173.503906 112.878906 172.441406 107.351562 C 171.582031 102.875 170.34375 96.125 166.472656 93.113281 C 162.902344 90.332031 160.117188 94.894531 158.875 97.800781 C 153.777344 109.765625 154.960938 124.589844 156.730469 137.148438 C 158.355469 148.632812 161.425781 158.746094 167.882812 168.421875 C 168.179688 168.171875 168.566406 167.828125 168.753906 167.472656 Z M 168.964844 167.222656"/></g></g></g><g clip-path="url(#p)"><g clip-path="url(#q)"><g clip-path="url(#r)"><path d="M 167.164062 156.46875 C 167.285156 150.839844 168.257812 145.332031 169.425781 139.761719 C 170.9375 132.554688 173.132812 127.738281 173.613281 120.367188 C 174.113281 112.667969 171.542969 99.863281 167.027344 93.574219 C 166.742188 93.175781 165.375 92.46875 165.511719 93.890625 C 165.574219 94.59375 164.925781 95.648438 164.910156 96.144531 C 164.734375 101.421875 165.136719 106.730469 165.117188 112.015625 C 165.097656 120.324219 164.847656 128.636719 165.089844 136.949219 C 165.257812 142.675781 165.710938 148.378906 166.296875 154.0625 C 166.570312 154.871094 166.855469 155.671875 167.164062 156.46875 Z M 167.164062 156.46875"/></g></g></g><g clip-path="url(#s)"><g clip-path="url(#t)"><g clip-path="url(#u)"><path d="M 177.992188 191.117188 C 178.425781 185.46875 182.496094 181.019531 186.480469 177.332031 C 192.628906 171.636719 198.90625 166.453125 203.332031 159.203125 C 208.125 151.351562 210.101562 142.683594 211.914062 133.78125 C 213.28125 127.101562 213.945312 120.546875 214.21875 113.738281 C 214.421875 108.800781 214.402344 103.867188 214.246094 98.925781 C 212.492188 100.777344 210.285156 102.074219 208.417969 103.796875 C 205.707031 106.292969 203.421875 109.324219 201.007812 112.105469 C 197.921875 115.667969 195.644531 119.492188 193.789062 123.820312 C 192.019531 127.957031 190.167969 132.117188 188.855469 136.429688 C 186.511719 144.125 185.617188 152.230469 183.121094 159.871094 C 182.023438 163.257812 180.398438 166.460938 179.480469 169.894531 C 178.703125 172.828125 178.617188 175.890625 178.226562 178.882812 C 177.710938 182.871094 176.914062 187.582031 178.367188 191.441406 Z M 177.992188 191.117188"/></g></g></g><g clip-path="url(#v)"><g clip-path="url(#w)"><g clip-path="url(#x)"><path d="M 180.71875 200.855469 C 178.300781 199.0625 175.5625 197.78125 173.238281 195.828125 C 169.910156 193.03125 166.601562 190.285156 163.769531 186.972656 C 158.566406 180.878906 153.695312 174.523438 151.28125 166.796875 C 150.292969 163.636719 149.78125 160.367188 148.585938 157.261719 C 147.246094 153.820312 145.214844 150.683594 142.992188 147.757812 C 138.742188 142.171875 133.117188 136.546875 126.925781 133.179688 C 125.429688 132.363281 123.972656 131.691406 122.398438 131.0625 C 121.027344 130.515625 119.910156 129.660156 118.449219 129.355469 C 116.59375 128.972656 114.140625 127.703125 112.199219 128.167969 C 114.546875 135.976562 116.175781 144.109375 119.523438 151.578125 C 123 159.3125 128.574219 166.242188 134.769531 171.980469 C 145.035156 181.480469 155.855469 189.921875 168.4375 196.125 C 172.429688 198.09375 176.367188 199.480469 180.691406 200.507812 Z M 180.71875 200.855469"/></g></g></g><g clip-path="url(#y)"><g clip-path="url(#z)"><g clip-path="url(#A)"><path d="M 189.433594 215.34375 C 189.105469 212.5625 188.402344 209.980469 188.917969 207.117188 C 189.671875 202.917969 191.917969 199.285156 194.332031 195.875 C 196.816406 192.355469 199.40625 189.445312 203.308594 187.46875 C 206.753906 185.726562 210.410156 184.363281 213.898438 182.691406 C 217.992188 180.738281 221.59375 178.519531 225.230469 175.816406 C 228.859375 173.113281 231.480469 169.765625 234.460938 166.429688 C 237.144531 163.425781 239.125 159.75 240.953125 156.171875 C 242.554688 153.03125 243.8125 149.777344 244.535156 146.324219 C 245.714844 140.679688 246.21875 134.792969 245.558594 129.03125 C 243.839844 136.148438 239.09375 140.441406 232.792969 143.792969 C 223.957031 148.484375 217.164062 155.601562 210.109375 162.570312 C 203.027344 169.554688 198.332031 177.484375 194.769531 186.734375 C 192.910156 191.566406 191.15625 196.441406 189.367188 201.296875 C 188.574219 203.472656 187.738281 205.699219 187.621094 208.039062 C 187.496094 210.542969 188.339844 212.777344 189.40625 215 Z M 189.433594 215.34375"/></g></g></g><g clip-path="url(#B)"><g clip-path="url(#C)"><g clip-path="url(#D)"><path d="M 197.03125 226.953125 C 197.367188 224.898438 197.234375 222.75 198.371094 220.914062 C 199.75 218.6875 201.96875 216.3125 204.402344 215.28125 C 207.152344 214.113281 210.414062 213.691406 213.367188 213.445312 C 216.632812 213.167969 219.613281 212.46875 222.757812 211.554688 C 229.566406 209.574219 235.617188 206.421875 241.019531 201.785156 C 245.449219 197.984375 249.898438 193.910156 252.140625 188.414062 C 253.339844 185.480469 254.515625 182.679688 255.441406 179.652344 C 256.078125 177.585938 256.761719 175.3125 257.90625 173.457031 C 254.1875 178.363281 249.542969 180.535156 243.707031 182.085938 C 237.355469 183.777344 231.730469 187.003906 226.355469 190.730469 C 220.792969 194.59375 215.339844 198.855469 210.464844 203.558594 C 206.910156 206.996094 203.089844 211.0625 200.472656 215.269531 C 199.257812 217.21875 198.464844 219.40625 197.367188 221.429688 C 196.328125 223.332031 195.5 225.019531 196.507812 227.121094 C 196.738281 226.9375 197.015625 226.6875 197.164062 226.421875 Z M 197.03125 226.953125"/></g></g></g><g clip-path="url(#E)"><g clip-path="url(#F)"><g clip-path="url(#G)"><path d="M 186.480469 177.332031 C 192.628906 171.636719 198.90625 166.453125 203.332031 159.203125 C 208.125 151.351562 210.101562 142.683594 211.914062 133.78125 C 213.28125 127.101562 213.945312 120.546875 214.21875 113.738281 C 214.402344 109.3125 214.394531 104.894531 214.28125 100.472656 C 213.90625 101.707031 213.476562 102.925781 212.945312 104.09375 C 213.066406 104.71875 212.921875 105.394531 212.363281 106.019531 C 208.101562 110.757812 206.929688 117.117188 205.910156 123.210938 C 204.824219 129.6875 203.335938 135.957031 201.320312 142.214844 C 199.085938 149.183594 196.507812 156.0625 192.914062 162.449219 C 191.035156 165.792969 189.011719 169.050781 187.023438 172.324219 C 186.039062 174.847656 185.015625 177.355469 183.929688 179.832031 C 184.757812 178.960938 185.617188 178.128906 186.480469 177.332031 Z M 186.480469 177.332031"/></g></g></g><g clip-path="url(#H)"><g clip-path="url(#I)"><g clip-path="url(#J)"><path d="M 188.917969 207.117188 C 189.671875 202.917969 191.917969 199.285156 194.332031 195.875 C 196.816406 192.355469 199.40625 189.445312 203.308594 187.46875 C 206.753906 185.726562 210.410156 184.363281 213.898438 182.691406 C 217.992188 180.738281 221.59375 178.519531 225.230469 175.816406 C 228.859375 173.113281 231.480469 169.765625 234.460938 166.429688 C 237.144531 163.425781 239.125 159.75 240.953125 156.171875 C 242.554688 153.03125 243.8125 149.777344 244.535156 146.324219 C 245.484375 141.777344 245.984375 137.078125 245.800781 132.410156 C 244.847656 137.484375 241.761719 141.996094 239.539062 146.597656 C 237.613281 150.589844 235.648438 154.617188 233.050781 158.222656 C 230.546875 161.703125 227.503906 164.445312 224.199219 167.132812 C 217.460938 172.617188 210.355469 177.738281 204.132812 183.820312 C 200.929688 186.960938 197.671875 190.324219 195.1875 194.082031 C 193.046875 197.320312 190.6875 200.449219 189.433594 204.160156 C 189.152344 204.996094 188.605469 205.4375 187.988281 205.574219 C 187.796875 206.378906 187.660156 207.207031 187.621094 208.039062 C 187.496094 210.519531 188.328125 212.742188 189.382812 214.945312 C 189.039062 212.3125 188.429688 209.847656 188.917969 207.117188 Z M 188.917969 207.117188"/></g></g></g><g clip-path="url(#K)"><g clip-path="url(#L)"><g clip-path="url(#M)"><path d="M 227.417969 201.394531 C 217.082031 206.269531 206.144531 210.84375 198.410156 219.328125 C 198.078125 220.035156 197.738281 220.738281 197.367188 221.429688 C 196.328125 223.332031 195.5 225.019531 196.507812 227.121094 C 196.707031 226.96875 196.9375 226.753906 197.09375 226.527344 C 197.347656 224.601562 197.3125 222.625 198.371094 220.914062 C 199.75 218.6875 201.96875 216.3125 204.402344 215.28125 C 207.152344 214.113281 210.414062 213.691406 213.367188 213.445312 C 216.632812 213.167969 219.613281 212.46875 222.757812 211.554688 C 229.566406 209.574219 235.617188 206.421875 241.019531 201.785156 C 245.449219 197.984375 249.898438 193.910156 252.140625 188.414062 C 253.328125 185.496094 254.5 182.714844 255.429688 179.703125 C 248.933594 190.042969 238.417969 196.207031 227.417969 201.394531 Z M 227.417969 201.394531"/></g></g></g><g clip-path="url(#N)"><g clip-path="url(#O)"><g clip-path="url(#P)"><path d="M 141.839844 158.347656 C 145.964844 165.917969 149.964844 173.660156 155.566406 180.269531 C 159.738281 185.179688 164.585938 189.316406 169.832031 192.933594 C 167.695312 191.078125 165.628906 189.148438 163.769531 186.972656 C 158.566406 180.878906 153.695312 174.523438 151.28125 166.796875 C 150.292969 163.636719 149.78125 160.367188 148.585938 157.261719 C 147.246094 153.820312 145.214844 150.683594 142.992188 147.757812 C 138.742188 142.171875 133.117188 136.546875 126.925781 133.179688 C 125.429688 132.363281 123.972656 131.691406 122.398438 131.0625 C 122.082031 130.9375 112.492188 128.320312 112.199219 128.167969 C 121.070312 135.273438 136.417969 148.402344 141.839844 158.347656 Z M 141.839844 158.347656"/></g></g></g><g clip-path="url(#Q)"><g clip-path="url(#R)"><g clip-path="url(#S)"><g mask="url(#T)"><g><g clip-path="url(#U)" transform="translate(156 98)"><g clip-path="url(#V)"><g clip-path="url(#W)"><g clip-path="url(#X)"><path d="M 57.59375 3.902344 C 57.789062 5.015625 56.78125 6.636719 56.277344 7.582031 C 55.40625 9.226562 54.554688 10.867188 53.722656 12.539062 C 52.996094 13.984375 52.09375 15.25 51.253906 16.625 C 50.476562 17.882812 50.28125 18.949219 50.027344 20.382812 C 49.589844 22.820312 49.261719 25.347656 48.542969 27.703125 C 48.164062 28.953125 47.75 30.601562 47.949219 31.902344 C 47.496094 30.03125 46.980469 28.136719 46.679688 26.222656 C 46.355469 24.207031 46.859375 21.390625 45.964844 19.570312 C 45.1875 21.710938 45.613281 25.421875 46.265625 27.570312 C 46.976562 29.890625 47.292969 32.15625 47.195312 34.617188 C 46.988281 39.667969 43.628906 43.75 43.050781 48.714844 C 41.574219 47.664062 41.222656 44.011719 40.816406 42.414062 C 40.414062 40.816406 40.242188 39.273438 40.035156 37.65625 C 39.941406 36.921875 40.082031 35.371094 39.570312 34.796875 C 39.300781 36.050781 39.542969 37.636719 39.53125 38.9375 C 39.511719 40.472656 39.820312 41.925781 40.082031 43.421875 C 40.304688 44.683594 40.234375 45.796875 40.625 47.042969 C 40.957031 48.125 41.449219 49.152344 41.492188 50.3125 C 41.585938 52.65625 41.03125 55.640625 40.066406 57.8125 C 39.546875 58.980469 38.898438 59.992188 38.34375 61.171875 C 37.898438 62.125 37.53125 63.898438 36.761719 64.609375 C 36.023438 64.273438 35.824219 63.429688 35.46875 62.769531 C 34.792969 61.496094 34.019531 60.246094 33.574219 58.847656 C 32.703125 56.136719 32.503906 53.339844 31.851562 50.605469 C 31.382812 51.175781 31.605469 53.078125 31.65625 53.808594 C 31.75 55.128906 31.855469 56.566406 32.242188 57.839844 C 32.640625 59.128906 33.058594 60.523438 33.488281 61.835938 C 33.804688 62.792969 34.4375 63.585938 34.761719 64.539062 C 35.296875 66.101562 34.84375 67.574219 34.089844 69.027344 C 33.5625 70.039062 33 70.996094 32.496094 71.980469 C 32.101562 72.738281 31.671875 74.015625 30.933594 74.519531 C 29.972656 73.894531 29.15625 73.09375 28.644531 72.0625 C 28.128906 71.039062 27.96875 68.84375 27.15625 68.113281 C 27.347656 69.871094 27.777344 71.519531 28.402344 73.183594 C 29.066406 74.953125 30.132812 76.292969 28.964844 78.070312 C 27.957031 79.601562 26.617188 81.167969 25.445312 82.570312 C 24.300781 83.929688 22.855469 85.984375 23.152344 87.878906 C 23.75 87.207031 24.039062 86 24.472656 85.15625 C 24.988281 84.152344 25.441406 83.332031 26.179688 82.46875 C 27.441406 80.992188 28.632812 79.332031 30.035156 78 C 31.667969 76.441406 33.246094 74.695312 34.949219 73.191406 C 36.644531 71.699219 38.171875 70.230469 39.644531 68.488281 C 39.023438 69.226562 36.457031 72.15625 35.40625 70.894531 C 36.171875 69.671875 37.300781 68.644531 38.320312 67.679688 C 39.824219 66.261719 41.0625 64.554688 42.566406 63.125 C 44.144531 61.636719 45.53125 60.113281 46.746094 58.308594 C 47.425781 57.296875 48.140625 56.296875 48.875 55.328125 C 49.308594 54.761719 49.566406 53.929688 50.109375 53.488281 C 48.167969 55.757812 46.5 58.128906 44.550781 60.421875 C 43.882812 61.207031 39.53125 65.949219 38.519531 64.167969 C 39.492188 61.527344 41.5 59.285156 42.550781 56.601562 C 43.441406 54.332031 44.3125 52.121094 45.203125 49.847656 C 45.988281 47.84375 48.484375 46.953125 49.957031 45.285156 C 51.734375 43.273438 53.8125 40.765625 54.421875 38.097656 C 53.578125 39.179688 47.226562 48.046875 45.980469 46.621094 C 47.121094 44.757812 47.484375 42.136719 48.144531 40.078125 C 48.777344 38.105469 49.234375 36.117188 49.609375 34.078125 C 49.78125 33.136719 49.863281 32.140625 50.195312 31.214844 C 50.585938 30.136719 51.226562 29.519531 51.867188 28.585938 C 53.386719 26.355469 54.25 23.792969 56.046875 21.726562 C 54.957031 23.019531 53.730469 24.066406 52.644531 25.359375 C 52.242188 25.835938 51.6875 26.328125 51.375 26.871094 C 51.066406 27.410156 51.125 28.199219 50.53125 28.542969 C 50.125 27.773438 50.324219 26.179688 50.5 25.328125 C 50.78125 23.953125 51.105469 22.605469 51.382812 21.21875 C 51.578125 20.222656 51.683594 19.203125 52.082031 18.28125 C 52.574219 17.136719 52.753906 15.832031 53.234375 14.726562 C 53.671875 13.71875 54.472656 12.707031 55.105469 11.785156 C 55.761719 10.839844 56.132812 9.871094 56.605469 8.863281 C 57.535156 6.878906 57.6875 5.160156 57.855469 2.832031 Z M 57.59375 3.902344"/></g></g></g></g></g></g></g></g></g><g clip-path="url(#Y)"><g clip-path="url(#Z)"><g clip-path="url(#aa)"><g mask="url(#ab)"><g><g clip-path="url(#ac)" transform="translate(183 123)"><g clip-path="url(#ad)"><g clip-path="url(#ae)"><g clip-path="url(#af)"><path d="M 62.285156 7.058594 C 61.960938 7.921875 62.058594 8.933594 61.878906 9.835938 C 61.644531 11.011719 61.164062 12.199219 60.820312 13.359375 C 59.992188 16.160156 59.207031 18.941406 57.980469 21.574219 C 56.988281 23.695312 55.808594 25.707031 54.777344 27.800781 C 54.03125 29.316406 53.226562 31.101562 52.160156 32.261719 C 51.875 30.941406 52.460938 29.011719 52.578125 27.648438 C 52.707031 26.144531 53.410156 24.707031 53.460938 23.234375 C 52.796875 25.101562 52.203125 26.960938 51.90625 28.949219 C 51.636719 30.75 51.308594 32.96875 50.320312 34.53125 C 49.171875 36.339844 47.691406 37.976562 46.28125 39.644531 C 45.050781 41.09375 43.925781 42.621094 42.417969 43.75 C 41.085938 43.191406 42.863281 36.238281 43.1875 35.121094 C 43.757812 33.132812 44.800781 31.027344 45.867188 29.273438 C 46.5 28.230469 47.703125 26.777344 47.90625 25.621094 C 45.589844 27.433594 43.996094 30.976562 43.152344 33.714844 C 42.410156 36.152344 42.152344 38.574219 41.582031 40.984375 C 41.167969 42.753906 40.105469 44.96875 38.542969 46.136719 C 37.597656 46.847656 36.488281 46.988281 35.53125 47.867188 C 34.621094 48.691406 33.980469 49.84375 33.035156 50.632812 C 31.453125 49.980469 31.523438 45.644531 31.628906 44.378906 C 31.941406 40.707031 33.140625 37.738281 34.796875 34.507812 C 32.78125 36.980469 31.695312 40.117188 31.191406 43.273438 C 30.972656 44.652344 30.523438 46.023438 30.578125 47.414062 C 30.617188 48.339844 31.175781 49.121094 31.179688 50.023438 C 31.195312 52.109375 28.894531 53.578125 27.34375 54.398438 C 25.1875 55.546875 24.148438 57.441406 22.371094 59.015625 C 21.105469 58.515625 21.289062 55.941406 21.320312 54.847656 C 21.351562 53.605469 21.554688 52.347656 21.753906 51.121094 C 21.886719 50.261719 22.335938 49.359375 22.351562 48.492188 C 21.242188 49.8125 21.160156 51.96875 20.710938 53.570312 C 20.179688 55.472656 20.183594 56.625 20.691406 58.476562 C 21.160156 60.203125 19.769531 60.722656 18.6875 61.847656 C 17.527344 63.0625 16.628906 64.53125 15.414062 65.703125 C 13.996094 65.144531 14.929688 62.109375 14.691406 60.96875 C 13.460938 61.765625 14.195312 63.707031 14.242188 64.851562 C 14.300781 66.414062 13.160156 67.273438 12.148438 68.464844 C 11.121094 69.675781 10.378906 71.097656 9.722656 72.5625 C 9.363281 73.359375 7.996094 75.960938 8.621094 76.746094 C 9.25 76.386719 9.644531 74.675781 9.953125 74.007812 C 10.625 72.535156 11.433594 71.234375 12.308594 69.898438 C 13.851562 67.527344 16.234375 65.921875 18.214844 63.992188 C 19.84375 62.402344 21.417969 60.734375 23.144531 59.277344 C 24.042969 58.523438 24.878906 57.714844 25.78125 56.972656 C 26.492188 56.394531 27.378906 55.476562 28.121094 55.253906 C 26.117188 57.332031 32.703125 56.085938 33.398438 55.941406 C 36.222656 55.378906 38.886719 53.875 41.15625 52.183594 C 39.75 53.441406 37.042969 54.242188 35.289062 54.726562 C 33.886719 55.121094 30.742188 55.75 29.71875 54.28125 C 31.625 51.363281 35.566406 50.550781 38.472656 48.929688 C 40.273438 47.929688 41.859375 46.941406 43.460938 45.640625 C 44.421875 44.847656 45.257812 43.917969 46.214844 43.136719 C 46.828125 42.628906 47.652344 42.253906 48.140625 41.636719 C 46.753906 43.28125 45.234375 44.226562 43.320312 45.21875 C 42.199219 45.800781 40.175781 47.328125 38.898438 46.898438 C 41.320312 43.691406 44.800781 42.011719 47.605469 39.21875 C 49.71875 37.113281 51.277344 34.53125 52.792969 32 C 55.992188 26.683594 58.757812 20.921875 60.847656 15.074219 C 61.921875 12.09375 63.15625 9.199219 62.542969 5.992188 Z M 62.285156 7.058594"/></g></g></g></g></g></g></g></g></g><g clip-path="url(#ag)"><g clip-path="url(#ah)"><g clip-path="url(#ai)"><g mask="url(#aj)"><g><g clip-path="url(#ak)" transform="translate(139 110)"><g clip-path="url(#al)"><g clip-path="url(#am)"><g clip-path="url(#an)"><path d="M 28.59375 52.621094 C 29.089844 52.183594 28.628906 49.636719 28.582031 48.859375 C 28.480469 47.335938 28.511719 45.746094 28.59375 44.226562 C 28.726562 41.765625 29.082031 39.421875 29.402344 36.988281 C 29.675781 34.90625 29.992188 32.785156 30.367188 30.722656 C 30.714844 28.808594 31.453125 26.894531 31.65625 24.992188 C 30.382812 26.664062 29.980469 28.367188 29.378906 30.359375 C 28.890625 32 28.058594 33.699219 27.707031 35.34375 C 26.621094 34.992188 27.179688 32.152344 27.296875 31.273438 C 27.46875 29.957031 28.539062 27.15625 27.585938 25.996094 C 27.246094 25.582031 26.851562 25.832031 26.582031 25.273438 C 26.367188 24.820312 27.035156 23.203125 27.210938 22.71875 C 27.453125 22.042969 28.113281 21.140625 28.136719 20.417969 C 28.15625 19.769531 27.746094 19.367188 27.53125 18.792969 C 27.058594 17.507812 26.945312 16.078125 26.808594 14.71875 C 26.679688 13.527344 26.394531 12.292969 26.375 11.042969 C 26.351562 9.671875 26.195312 8.410156 26.210938 7.03125 C 26.222656 6.0625 26.628906 4.25 26.101562 3.417969 C 25.335938 5.714844 25.578125 8.191406 25.460938 10.59375 C 25.332031 13.175781 25.074219 15.824219 25.167969 18.410156 C 25.242188 20.578125 24.902344 22.667969 24.777344 24.824219 C 24.707031 25.996094 25.109375 29.5 23.941406 30.238281 C 21.230469 28.449219 20.414062 25.957031 19.457031 23.011719 C 19.042969 21.738281 18.519531 20.5 18.136719 19.214844 C 17.941406 18.558594 17.726562 17.800781 17.660156 17.128906 C 17.613281 16.578125 17.78125 16.042969 17.488281 15.484375 C 16.757812 17.007812 17.070312 19.351562 17.179688 20.980469 C 17.324219 23.15625 17.503906 25.277344 17.925781 27.414062 C 18.628906 30.984375 19.285156 34.527344 20.261719 38.027344 C 21.785156 43.464844 22.980469 49.644531 27.769531 53.210938 Z M 28.59375 52.621094"/></g></g></g></g></g></g></g></g></g><g clip-path="url(#ao)"><g clip-path="url(#ap)"><g clip-path="url(#aq)"><g mask="url(#ar)"><g><g clip-path="url(#as)" transform="translate(147 100)"><g clip-path="url(#at)"><g clip-path="url(#au)"><g clip-path="url(#av)"><path d="M 17.789062 35.066406 C 18.484375 34.460938 18.886719 33.378906 19.511719 32.648438 C 20.441406 31.570312 21.183594 30.492188 21.859375 29.234375 C 22.960938 27.167969 24.242188 24.042969 24.355469 21.679688 C 23.628906 22.148438 23.113281 24.539062 22.703125 25.371094 C 22.039062 26.707031 21.433594 27.917969 20.617188 29.140625 C 19.5625 30.734375 18.832031 32.320312 17.5625 33.808594 C 18.628906 32.851562 18.308594 30.191406 18.496094 28.878906 C 18.808594 26.789062 18.671875 24.648438 18.855469 22.542969 C 19.058594 20.140625 19.503906 17.878906 20.285156 15.585938 C 20.894531 13.792969 22.070312 11.582031 21.902344 9.621094 C 21.015625 11.035156 20.519531 13.175781 19.867188 14.730469 C 19.378906 15.886719 19.1875 17.996094 18.269531 18.898438 C 18.246094 17.960938 18.597656 17.003906 18.714844 16.070312 C 18.898438 14.570312 18.910156 13.042969 19 11.53125 C 19.105469 9.84375 19.277344 8.230469 19.207031 6.527344 C 19.164062 5.386719 19.292969 3.828125 18.792969 2.777344 C 18.296875 3.800781 18.410156 5.054688 18.339844 6.140625 C 18.222656 7.816406 18.148438 9.515625 17.992188 11.195312 C 17.753906 13.6875 17.582031 16.6875 16.835938 19.042969 C 15.488281 18.261719 14.882812 16.773438 14.238281 15.433594 C 13.726562 14.355469 12.890625 13.117188 12.589844 11.992188 C 14.035156 16.558594 17.675781 20.949219 17.273438 25.902344 C 17.175781 27.140625 17.082031 29.898438 15.382812 29.835938 C 13.324219 29.753906 10.996094 26.675781 9.683594 25.292969 C 10.710938 25.9375 11.417969 27.496094 12.207031 28.402344 C 13.117188 29.449219 14.109375 30.34375 15.1875 31.246094 C 16.066406 31.988281 16.527344 32.800781 16.820312 33.921875 C 16.980469 34.527344 17.050781 36.378906 17.554688 36.484375 Z M 17.789062 35.066406"/></g></g></g></g></g></g></g></g></g><g clip-path="url(#aw)"><g clip-path="url(#ax)"><g clip-path="url(#ay)"><g mask="url(#az)"><g><g clip-path="url(#aA)" transform="translate(112 132)"><g clip-path="url(#aB)"><g clip-path="url(#aC)"><g clip-path="url(#aD)"><path d="M 36.050781 37.28125 C 36.207031 37.414062 36.21875 37.425781 36.074219 37.3125 C 34.578125 36.132812 35.066406 33.097656 34.875 31.464844 C 34.699219 30 34.46875 28.605469 34.378906 27.125 C 34.335938 26.460938 34.359375 25.507812 34.023438 24.933594 C 33.925781 27.660156 34.320312 30.789062 33.828125 33.410156 C 32.640625 32.695312 32.316406 31.527344 31.929688 30.242188 C 31.390625 28.441406 30.636719 26.722656 30.058594 24.941406 C 29.34375 22.730469 28.769531 20.589844 27.773438 18.484375 C 27.023438 16.890625 26.042969 15.394531 25.347656 13.800781 C 25.78125 15.21875 26.4375 16.597656 26.699219 18.050781 C 26.824219 18.761719 27.140625 20.957031 26.523438 21.414062 C 25.570312 20.984375 25.417969 19.519531 25.066406 18.597656 C 24.445312 17 23.550781 15.542969 22.523438 14.164062 C 20.445312 11.386719 18.449219 8.609375 16.046875 6.117188 C 17.320312 7.273438 18.289062 8.546875 18.925781 10.175781 C 19.285156 11.113281 20.023438 12.222656 20.183594 13.195312 C 18.476562 11.625 16.839844 10.109375 15.25 8.441406 C 13.375 6.472656 11.050781 5.101562 9.003906 3.375 C 11.414062 5.433594 13.835938 7.371094 15.6875 9.933594 C 16.683594 11.308594 17.773438 12.585938 18.695312 13.988281 C 19.246094 14.828125 19.929688 15.851562 20.660156 16.546875 C 20.164062 16.644531 19.503906 16.421875 18.96875 16.238281 C 17.660156 15.792969 16.257812 15.625 14.984375 15.054688 C 13.371094 14.34375 11.085938 13.171875 9.886719 11.855469 C 12.582031 14.789062 16.226562 16.683594 20.035156 17.773438 C 21.113281 18.082031 22.441406 18.226562 23.3125 18.996094 C 24.210938 19.796875 24.445312 21.125 24.894531 22.183594 C 25.414062 23.410156 26.113281 24.523438 26.847656 25.628906 C 27.222656 26.195312 28.523438 27.65625 28.265625 28.402344 C 27.613281 30.277344 18.90625 25.683594 17.441406 25.0625 C 18.335938 25.945312 20.273438 26.414062 21.441406 26.816406 C 22.8125 27.289062 24.226562 27.730469 25.550781 28.332031 C 27.316406 29.140625 29.070312 29.742188 30.546875 31.003906 C 32.148438 32.371094 32.984375 33.8125 34.082031 35.558594 C 34.816406 36.722656 36.171875 38.464844 36.34375 39.832031 C 36.40625 39.460938 36.199219 39.460938 36.03125 39.210938 Z M 36.050781 37.28125"/></g></g></g></g></g></g></g></g></g><g clip-path="url(#aE)"><g clip-path="url(#aF)"><g clip-path="url(#aG)"><path d="M 192.207031 222.863281 C 187.285156 217.25 182.011719 212.253906 175.722656 208.175781 C 166.710938 202.328125 156.617188 197.988281 146.28125 195.136719 C 138.257812 192.917969 129.042969 191.007812 120.738281 192.773438 C 118.308594 193.292969 113.183594 195.074219 115.050781 198.515625 C 116.710938 201.554688 121.34375 202.96875 124.320312 204.144531 C 129.832031 206.332031 135.425781 208.335938 140.976562 210.40625 C 152.058594 214.535156 163.226562 218.441406 174.890625 220.546875 C 180.574219 221.574219 186.320312 222.375 192.085938 222.761719 Z M 192.207031 222.863281"/></g></g></g><g clip-path="url(#aH)"><g clip-path="url(#aI)"><g clip-path="url(#aJ)"><path d="M 203.503906 238.25 C 198.996094 237.140625 194.917969 235.699219 191.058594 233.0625 C 185.773438 229.457031 180.167969 226.179688 173.957031 224.441406 C 169.617188 223.222656 165.046875 222.207031 160.550781 221.8125 C 155.949219 221.414062 151.433594 222.167969 146.972656 223.230469 C 142.6875 224.25 138.472656 225.871094 134.046875 226.179688 C 131.457031 226.355469 129.054688 225.894531 126.527344 225.488281 C 128.078125 226.480469 129.785156 227.160156 131.476562 227.875 C 134.394531 229.101562 137.3125 230.324219 140.320312 231.324219 C 146.683594 233.417969 152.871094 236.074219 159.375 237.691406 C 162.984375 238.585938 166.609375 239.527344 170.28125 240.140625 C 173.644531 240.699219 177.019531 240.800781 180.421875 240.945312 C 183.347656 241.070312 186.308594 241.398438 189.242188 241.261719 C 191.121094 241.179688 192.941406 240.710938 194.777344 240.335938 C 197.683594 239.761719 200.546875 239.015625 203.378906 238.144531 Z M 203.503906 238.25"/></g></g></g><g clip-path="url(#aK)"><g clip-path="url(#aL)"><g clip-path="url(#aM)"><g mask="url(#aN)"><g><g clip-path="url(#aO)" transform="translate(129 199)"><g clip-path="url(#aP)"><g clip-path="url(#aQ)"><g clip-path="url(#aR)"><path d="M 65.464844 38.703125 C 62.40625 37.847656 59.296875 37.214844 56.25 36.351562 C 52.507812 35.28125 48.78125 33.996094 44.871094 33.695312 C 40.972656 33.398438 37.070312 33.105469 33.179688 32.695312 C 24.929688 31.828125 16.898438 29.925781 8.699219 28.765625 C 6.023438 28.382812 3.398438 28.242188 0.726562 28.132812 C 1.304688 28.382812 1.890625 28.628906 2.476562 28.875 C 5.394531 30.101562 8.3125 31.324219 11.320312 32.324219 C 17.683594 34.417969 23.871094 37.074219 30.375 38.691406 C 33.984375 39.585938 37.609375 40.527344 41.28125 41.140625 C 44.644531 41.699219 48.019531 41.800781 51.421875 41.945312 C 54.347656 42.070312 57.308594 42.398438 60.242188 42.261719 C 62.121094 42.179688 63.941406 41.710938 65.777344 41.335938 C 67.878906 40.925781 69.949219 40.414062 72.003906 39.839844 C 69.792969 39.804688 67.574219 39.289062 65.464844 38.703125 Z M 65.464844 38.703125"/></g></g></g></g></g></g></g></g></g><g clip-path="url(#aS)"><g clip-path="url(#aT)"><g clip-path="url(#aU)"><path d="M 181.433594 219.476562 C 176.917969 216.972656 172.695312 213.519531 167.902344 211.546875 C 165.867188 210.707031 164.210938 210.28125 162.042969 209.667969 C 154.582031 207.542969 147.058594 205.628906 139.570312 203.589844 C 131.804688 201.476562 124.003906 199.375 116.414062 196.707031 C 115.96875 196.546875 115.433594 196.375 114.839844 196.179688 C 114.558594 196.855469 114.570312 197.628906 115.050781 198.515625 C 116.710938 201.554688 121.34375 202.96875 124.320312 204.144531 C 129.832031 206.332031 135.425781 208.335938 140.976562 210.40625 C 152.058594 214.535156 163.226562 218.441406 174.890625 220.546875 C 179.394531 221.367188 183.933594 222.03125 188.488281 222.464844 C 186.046875 221.769531 183.691406 220.726562 181.433594 219.476562 Z M 181.433594 219.476562"/></g></g></g><g clip-path="url(#aV)"><g clip-path="url(#aW)"><g clip-path="url(#aX)"><g mask="url(#aY)"><g><g clip-path="url(#aZ)" transform="translate(199 161)"><g clip-path="url(#ba)"><g clip-path="url(#bb)"><g clip-path="url(#bc)"><path d="M 57.976562 13.933594 C 57.492188 14.507812 57.023438 15.035156 56.660156 15.691406 C 55.980469 16.929688 55.613281 18.335938 54.867188 19.527344 C 54.195312 20.617188 53.335938 21.566406 52.59375 22.605469 C 51.839844 23.648438 51.195312 24.722656 50.359375 25.710938 C 49.171875 27.117188 47.605469 28.328125 46.101562 29.375 C 45.414062 29.859375 44.816406 30.441406 44.066406 30.839844 C 43.539062 31.125 42.972656 31.195312 42.449219 31.472656 C 43.257812 30.570312 43.117188 29.601562 43.472656 28.492188 C 43.832031 27.378906 44.160156 25.40625 45.074219 24.578125 C 44.179688 25.859375 43.679688 27.128906 43.371094 28.65625 C 43.074219 30.125 42.808594 31.601562 41.816406 32.773438 C 40.949219 33.808594 39.6875 34.839844 38.515625 35.507812 C 36.585938 36.59375 36.210938 34.734375 36.351562 33.101562 C 36.605469 30.164062 37.863281 27.433594 39.527344 25.035156 C 38.734375 26.019531 37.824219 26.851562 37.351562 28.042969 C 36.992188 28.957031 36.53125 29.945312 36.3125 30.898438 C 36.136719 31.6875 36.117188 32.488281 36.007812 33.285156 C 35.90625 34.03125 36.078125 34.980469 35.796875 35.683594 C 35.421875 36.589844 34.386719 36.773438 33.585938 37.164062 C 32.851562 37.523438 32.082031 37.765625 31.339844 38.097656 C 29.777344 38.792969 28.21875 39.335938 26.707031 40.097656 C 25.539062 39.742188 27.058594 35.332031 27.359375 34.679688 C 28.328125 32.539062 29.402344 30.304688 30.957031 28.53125 C 30.34375 29.4375 29.3125 30.199219 28.589844 31.046875 C 27.804688 31.980469 27.382812 32.953125 26.960938 34.089844 C 26.355469 35.730469 26.027344 37.40625 25.578125 39.058594 C 25.136719 40.726562 24.355469 41.367188 22.855469 42.128906 C 21.867188 42.628906 21.09375 43.308594 20.011719 43.621094 C 18.785156 43.964844 17.785156 44.597656 16.636719 45.113281 C 15.472656 44.769531 16.132812 43.375 16.304688 42.417969 C 16.503906 41.207031 16.832031 39.136719 17.777344 38.226562 C 16.824219 39.347656 16.261719 40.222656 15.953125 41.660156 C 15.816406 42.289062 15.507812 42.875 15.417969 43.496094 C 15.335938 44.027344 15.488281 44.554688 15.242188 45.03125 C 14.546875 46.363281 13.195312 47.128906 12.089844 47.980469 C 10.953125 48.855469 9.761719 49.738281 8.578125 50.554688 C 7.832031 50.210938 9.226562 48.152344 8.917969 47.453125 C 8.160156 48.011719 8.34375 48.894531 7.933594 49.597656 C 7.496094 50.328125 6.722656 51.007812 6.167969 51.660156 C 4.933594 53.121094 3.398438 53.925781 2.144531 55.390625 C 4.199219 52.917969 6.882812 52.042969 9.808594 51.054688 C 10.996094 50.65625 12.34375 50.769531 13.621094 50.882812 C 15.074219 51.007812 16.601562 50.984375 17.992188 50.90625 C 17.390625 50.628906 16.644531 50.824219 16.003906 50.753906 C 15.234375 50.664062 14.480469 50.425781 13.726562 50.230469 C 12.734375 49.972656 11.894531 49.867188 11.175781 49.101562 C 11.96875 47.921875 13.390625 47.460938 14.707031 47.117188 C 15.988281 46.78125 17.210938 45.996094 18.554688 45.929688 C 19.980469 45.863281 21.503906 46.328125 22.882812 46.613281 C 23.6875 46.78125 24.417969 46.972656 25.179688 47.300781 C 25.75 47.539062 26.367188 48 26.984375 48.117188 C 26.625 46.945312 24.449219 46.441406 23.4375 46.027344 C 22.84375 45.789062 22.253906 45.5625 21.65625 45.332031 C 21.21875 45.160156 20.390625 45.058594 20.128906 44.640625 C 20.402344 43.886719 21.636719 44.011719 22.257812 43.886719 C 22.980469 43.722656 23.675781 43.40625 24.40625 43.222656 C 25.800781 42.867188 26.800781 41.785156 28.242188 41.636719 C 29.960938 41.460938 31.769531 41.847656 33.472656 41.570312 C 35.316406 41.28125 37.015625 40.070312 38.863281 39.746094 C 38.296875 40.078125 37.40625 40.074219 36.777344 40.183594 C 36.089844 40.308594 35.390625 40.558594 34.671875 40.65625 C 33.429688 40.824219 31.039062 40.730469 30.195312 39.625 C 31.019531 38.371094 33.214844 38.484375 34.613281 38.339844 C 35.949219 38.195312 37.109375 37.523438 38.3125 36.929688 C 39.761719 36.214844 41.207031 35.507812 42.632812 34.753906 C 44.058594 34.007812 45.410156 32.964844 46.855469 32.328125 C 46.523438 33.207031 44.644531 33.515625 43.878906 33.839844 C 43.097656 34.175781 42.3125 34.734375 41.425781 34.519531 C 41.894531 33.691406 42.625 33.617188 43.355469 33.082031 C 44.035156 32.582031 44.671875 32.03125 45.339844 31.507812 C 46.871094 30.296875 48.0625 28.785156 49.414062 27.335938 C 50 26.710938 50.683594 26.179688 51.320312 25.617188 C 52.035156 24.980469 52.660156 24.269531 53.300781 23.519531 C 54.496094 22.09375 55.621094 20.355469 56.226562 18.609375 C 56.804688 16.9375 57.769531 15.324219 58.191406 13.6875 Z M 57.976562 13.933594"/></g></g></g></g></g></g></g></g></g><g clip-path="url(#bd)"><g clip-path="url(#be)"><g clip-path="url(#bf)"><g mask="url(#bg)"><g><g clip-path="url(#bh)" transform="translate(111 171)"><g clip-path="url(#bi)"><g clip-path="url(#bj)"><g clip-path="url(#bk)"><path d="M 80.714844 50.800781 C 72.847656 51.285156 66.792969 43.671875 62.628906 38.042969 C 63.4375 38.589844 63.765625 39.464844 64.328125 40.222656 C 64.921875 40.996094 65.714844 41.664062 66.308594 42.457031 C 66.851562 43.1875 70.203125 46.625 69.78125 47.273438 C 68.945312 46.902344 68.007812 46.757812 67.167969 46.40625 C 66.164062 45.980469 65.414062 45.246094 64.570312 44.53125 C 62.804688 43.039062 60.78125 41.632812 59.183594 39.972656 C 55.976562 36.636719 53.773438 32.664062 49.230469 30.894531 C 50.726562 31.84375 60.085938 38.5 58.132812 40.382812 C 56.746094 41.722656 51.664062 38.359375 50.449219 37.6875 C 47.289062 35.933594 44.878906 33.539062 42.144531 31.234375 C 39.234375 28.78125 35.828125 27.140625 32.363281 25.648438 C 34.949219 26.621094 37.332031 27.871094 39.554688 29.523438 C 41.554688 31.023438 44.089844 32.792969 45.410156 34.953125 C 47.410156 38.226562 40.558594 35.371094 39.601562 34.980469 C 35.621094 33.339844 31.671875 31.53125 28.179688 28.988281 C 24.652344 26.421875 21.632812 23.503906 17.550781 21.792969 C 18.867188 22.480469 20.113281 23.113281 21.351562 23.945312 C 22.535156 24.746094 23.601562 25.832031 24.816406 26.640625 C 25.90625 27.371094 26.925781 28.121094 27.972656 28.992188 C 29.039062 29.882812 30.386719 30.210938 31.339844 31.253906 C 30.597656 33.152344 22.714844 29.421875 21.335938 28.667969 C 17.960938 26.832031 14.597656 25.011719 11.199219 23.171875 C 14.800781 26.105469 19.277344 27.605469 22.894531 30.480469 C 19.785156 29.605469 16.800781 28.546875 13.742188 27.574219 C 11.941406 27.003906 10.257812 26.578125 8.394531 26.265625 C 7 26.035156 4.863281 25.171875 3.535156 25.648438 C 4.40625 26.296875 6.316406 26.148438 7.386719 26.351562 C 8.859375 26.636719 10.328125 27.035156 11.761719 27.488281 C 14.519531 28.347656 17.164062 29.292969 19.863281 30.355469 C 22.074219 31.222656 24.382812 31.828125 26.675781 32.414062 C 27.640625 32.660156 28.535156 33 29.46875 33.324219 C 30.222656 33.589844 31.445312 33.65625 31.941406 34.34375 C 31.6875 35.117188 29.996094 35.046875 29.304688 35.214844 C 28.113281 35.496094 27.09375 35.601562 25.867188 35.585938 C 23.722656 35.566406 21.796875 35.34375 19.683594 34.898438 C 22.1875 34.796875 24.660156 35.671875 27.171875 35.839844 C 28.21875 35.910156 29.324219 35.925781 30.359375 35.773438 C 31.46875 35.605469 31.871094 34.929688 32.800781 34.535156 C 34.386719 33.855469 37.640625 35.265625 39.238281 35.730469 C 41.476562 36.382812 43.425781 37.878906 45.570312 38.546875 C 44.769531 39.644531 42.199219 40.285156 40.886719 40.507812 C 40.179688 40.632812 39.441406 40.671875 38.734375 40.707031 C 37.902344 40.742188 37.050781 40.460938 36.21875 40.535156 C 38.179688 41.015625 40.488281 41.273438 42.492188 40.898438 C 43.402344 40.726562 44.617188 40.5 45.386719 39.902344 C 46.273438 39.210938 46.484375 37.894531 47.679688 37.925781 C 49.398438 37.976562 51.050781 39.503906 52.542969 40.050781 C 54.214844 40.664062 55.921875 41.390625 57.71875 41.753906 C 56.390625 43.082031 54.699219 43.761719 52.867188 44.292969 C 51.820312 44.589844 50.902344 44.542969 49.855469 44.625 C 48.917969 44.710938 48.019531 44.480469 47.050781 44.554688 C 47.675781 44.484375 48.261719 44.78125 48.882812 44.832031 C 49.636719 44.898438 50.457031 44.800781 51.214844 44.828125 C 52.394531 44.863281 53.527344 44.875 54.636719 44.457031 C 55.804688 44.019531 56.679688 43.234375 57.636719 42.582031 C 58.929688 41.699219 59.226562 42.324219 60.429688 43.28125 C 62.410156 44.863281 64.875 46.125 67.273438 46.921875 C 68.425781 47.300781 69.496094 47.425781 70.53125 48.03125 C 71.582031 48.648438 72.410156 49.113281 73.613281 49.402344 C 74.871094 49.703125 76.105469 49.707031 77.320312 50.199219 C 77.832031 50.410156 78.320312 50.738281 78.886719 50.808594 C 79.507812 50.882812 80.175781 50.261719 80.714844 50.800781 Z M 80.714844 50.800781"/></g></g></g></g></g></g></g></g></g><g clip-path="url(#bl)"><g clip-path="url(#bm)"><g clip-path="url(#bn)"><g mask="url(#bo)"><g><g clip-path="url(#bp)" transform="translate(132 198)"><g clip-path="url(#bq)"><g clip-path="url(#br)"><g clip-path="url(#bs)"><path d="M 69.609375 39.9375 C 68.675781 41.433594 65.625 40.664062 64.148438 40.554688 C 61.644531 40.371094 59.304688 39.6875 57.097656 38.511719 C 53.058594 36.371094 49.226562 33.816406 45.839844 30.738281 C 46.574219 32.945312 50.183594 35.171875 51.992188 36.601562 C 49.941406 35.863281 47.554688 36.089844 45.421875 35.667969 C 43.449219 35.277344 41.605469 34.734375 39.691406 34.261719 C 37.359375 33.683594 35.863281 32.953125 33.960938 31.335938 C 31.933594 29.617188 30.3125 27.59375 28.3125 25.894531 C 29.789062 27.171875 31.242188 28.761719 32.394531 30.300781 C 32.898438 30.96875 33.3125 31.617188 33.851562 32.207031 C 34.449219 32.863281 35.28125 33.316406 35.875 33.972656 C 35.058594 34.628906 32.796875 34.160156 31.820312 34.03125 C 30.34375 33.828125 28.703125 33.074219 27.503906 32.28125 C 25.988281 31.277344 24.785156 30.070312 23.136719 29.257812 C 22.191406 28.792969 21.222656 28.335938 20.234375 27.980469 C 19.597656 27.738281 18.058594 26.988281 17.402344 27.246094 C 19.132812 27.996094 20.855469 28.882812 22.472656 29.816406 C 23.820312 30.597656 25.414062 31.246094 26.480469 32.457031 C 26.738281 32.753906 23.335938 32.457031 23.121094 32.398438 C 21.582031 32.015625 20.128906 31.394531 18.511719 31.417969 C 15.183594 31.460938 12.421875 30.570312 9.191406 29.78125 C 8.066406 29.5 6.960938 29.253906 5.828125 29.035156 C 5.15625 28.90625 4.210938 28.382812 3.550781 28.726562 C 4.695312 30.171875 8.808594 30.441406 10.484375 30.800781 C 12.847656 31.3125 15.273438 31.839844 17.59375 32.484375 C 19.359375 32.972656 21.171875 33.257812 22.980469 33.570312 C 23.886719 33.714844 24.738281 34.042969 25.644531 34.273438 C 26.328125 34.441406 27.5625 34.308594 28.066406 34.765625 C 27.707031 35.699219 25.410156 36.128906 24.550781 36.332031 C 23.285156 36.628906 21.550781 36.847656 20.269531 36.542969 C 22.386719 36.546875 24.59375 36.667969 26.585938 36.0625 C 27.566406 35.773438 28.375 35.074219 29.367188 34.933594 C 30.285156 34.808594 31.28125 35.140625 32.164062 35.214844 C 34.0625 35.375 35.875 35.253906 37.773438 35.292969 C 39.21875 35.316406 42.347656 35.359375 43.257812 36.675781 C 42 38.714844 38.722656 39.339844 36.609375 39.664062 C 38.1875 39.769531 39.960938 39.3125 41.574219 38.914062 C 42.625 38.65625 42.894531 38.472656 43.664062 37.777344 C 44.058594 37.421875 44.613281 37.078125 45.164062 36.941406 C 46.375 36.644531 47.679688 36.796875 48.878906 36.953125 C 50.089844 37.117188 52.015625 37.089844 52.957031 37.800781 C 52.113281 39.246094 49.59375 40.652344 47.886719 40.761719 C 49.132812 40.121094 50.578125 40.09375 51.855469 39.414062 C 52.863281 38.878906 53.78125 38.050781 54.960938 38.148438 C 56.105469 38.242188 57.179688 38.957031 58.269531 39.257812 C 59.207031 39.515625 61.023438 39.320312 61.714844 40.050781 C 61.398438 40.734375 59.867188 41.605469 59.109375 41.332031 C 60.183594 40.300781 62.890625 40.632812 64.273438 40.816406 C 65.515625 40.980469 68.226562 41.359375 69.105469 40.148438 Z M 69.609375 39.9375"/></g></g></g></g></g></g></g></g></g><g><use x="61.988" y="162.909" xmlns:xlink="http://www.w3.org/1999/xlink" xlink:href="#bt" xlink:type="simple" xlink:actuate="onLoad" xlink:show="embed"/></g><g><use x="78.194" y="118.362" xmlns:xlink="http://www.w3.org/1999/xlink" xlink:href="#bu" xlink:type="simple" xlink:actuate="onLoad" xlink:show="embed"/></g><g><use x="115.84" y="81.041" xmlns:xlink="http://www.w3.org/1999/xlink" xlink:href="#bv" xlink:type="simple" xlink:actuate="onLoad" xlink:show="embed"/></g><g><use x="159.758" y="63.389" xmlns:xlink="http://www.w3.org/1999/xlink" xlink:href="#bw" xlink:type="simple" xlink:actuate="onLoad" xlink:show="embed"/></g><g><use x="215.069" y="68.523" xmlns:xlink="http://www.w3.org/1999/xlink" xlink:href="#bx" xlink:type="simple" xlink:actuate="onLoad" xlink:show="embed"/></g><g><use x="245.575" y="81.886" xmlns:xlink="http://www.w3.org/1999/xlink" xlink:href="#by" xlink:type="simple" xlink:actuate="onLoad" xlink:show="embed"/></g><g><use x="278.986" y="114.553" xmlns:xlink="http://www.w3.org/1999/xlink" xlink:href="#bz" xlink:type="simple" xlink:actuate="onLoad" xlink:show="embed"/></g></svg>